<svg xmlns="http://www.w3.org/2000/svg" xmlns:xlink="http://www.w3.org/1999/xlink" width="751" height="529" viewBox="0 0 751 529"><defs><style>.a{fill:none;}.b{fill:#075450;}.c{opacity:0.5;}.d{fill:#1dbc86;fill-rule:evenodd;}.e{clip-path:url(#c);}.f,.i{fill:#fff;}.g{clip-path:url(#d);}.h{fill:#faa61a;}.i{font-size:18px;font-family:Graphik-Regular, Graphik;}.j{filter:url(#a);}</style><filter id="a" x="0" y="0" width="751" height="529" filterUnits="userSpaceOnUse"><feOffset dy="7" input="SourceAlpha"/><feGaussianBlur stdDeviation="25" result="b"/><feFlood flood-opacity="0.161"/><feComposite operator="in" in2="b"/><feComposite in="SourceGraphic"/></filter><clipPath id="c"><rect class="a" width="85" height="8"/></clipPath><clipPath id="d"><rect class="a" width="62" height="8"/></clipPath></defs><g transform="translate(-3847 -2020)"><g transform="translate(-3743 1581)"><g class="j" transform="matrix(1, 0, 0, 1, 7590, 439)"><path class="b" d="M10,0H591a10,10,0,0,1,10,10V369a10,10,0,0,1-10,10H10A10,10,0,0,1,0,369V10A10,10,0,0,1,10,0Z" transform="translate(75 68)"/></g><g class="c" transform="translate(8241.199 517.946) rotate(90)"><g class="c" transform="translate(10.8 29.7)"><path class="d" d="M32.4,32.4,0,0H32.4Z"/></g><path class="d" d="M54,54,0,0H54Z" transform="translate(21.6)"/><path class="d" d="M21.6,21.6,0,0H21.6Z" transform="translate(0 48.6)"/></g></g><g class="e" transform="translate(3960 2270)"><g transform="translate(-4113 1036)"><circle class="f" cx="4" cy="4" r="4" transform="translate(4113 -1036)"/></g><g transform="translate(-4088 1036)"><circle class="f" cx="4" cy="4" r="4" transform="translate(4113 -1036)"/></g><g transform="translate(-4063 1036)"><circle class="f" cx="4" cy="4" r="4" transform="translate(4113 -1036)"/></g><g transform="translate(-4038 1036)"><circle class="f" cx="4" cy="4" r="4" transform="translate(4113 -1036)"/></g></g><g class="g" transform="translate(3960 2428)"><g transform="translate(-4113 1036)"><circle class="f" cx="4" cy="4" r="4" transform="translate(4113 -1036)"/></g><g transform="translate(-4088 1036)"><circle class="f" cx="4" cy="4" r="4" transform="translate(4113 -1036)"/></g><g transform="translate(-4063 1036)"><circle class="f" cx="4" cy="4" r="4" transform="translate(4113 -1036)"/></g></g><g class="e" transform="translate(4072 2428)"><g transform="translate(-4113 1036)"><circle class="f" cx="4" cy="4" r="4" transform="translate(4113 -1036)"/></g><g transform="translate(-4088 1036)"><circle class="f" cx="4" cy="4" r="4" transform="translate(4113 -1036)"/></g><g transform="translate(-4063 1036)"><circle class="f" cx="4" cy="4" r="4" transform="translate(4113 -1036)"/></g><g transform="translate(-4038 1036)"><circle class="f" cx="4" cy="4" r="4" transform="translate(4113 -1036)"/></g></g><g class="e" transform="translate(4407 2428)"><g transform="translate(-4113 1036)"><circle class="f" cx="4" cy="4" r="4" transform="translate(4113 -1036)"/></g><g transform="translate(-4088 1036)"><circle class="f" cx="4" cy="4" r="4" transform="translate(4113 -1036)"/></g><g transform="translate(-4063 1036)"><circle class="f" cx="4" cy="4" r="4" transform="translate(4113 -1036)"/></g><g transform="translate(-4038 1036)"><circle class="f" cx="4" cy="4" r="4" transform="translate(4113 -1036)"/></g></g><g class="e" transform="translate(4109 2270)"><g transform="translate(-4113 1036)"><circle class="f" cx="4" cy="4" r="4" transform="translate(4113 -1036)"/></g><g transform="translate(-4088 1036)"><circle class="f" cx="4" cy="4" r="4" transform="translate(4113 -1036)"/></g><g transform="translate(-4063 1036)"><circle class="f" cx="4" cy="4" r="4" transform="translate(4113 -1036)"/></g><g transform="translate(-4038 1036)"><circle class="f" cx="4" cy="4" r="4" transform="translate(4113 -1036)"/></g></g><g class="e" transform="translate(4258 2270)"><g transform="translate(-4113 1036)"><circle class="f" cx="4" cy="4" r="4" transform="translate(4113 -1036)"/></g><g transform="translate(-4088 1036)"><circle class="f" cx="4" cy="4" r="4" transform="translate(4113 -1036)"/></g><g transform="translate(-4063 1036)"><circle class="f" cx="4" cy="4" r="4" transform="translate(4113 -1036)"/></g><g transform="translate(-4038 1036)"><circle class="f" cx="4" cy="4" r="4" transform="translate(4113 -1036)"/></g></g><g class="e" transform="translate(4407 2270)"><g transform="translate(-4113 1036)"><circle class="f" cx="4" cy="4" r="4" transform="translate(4113 -1036)"/></g><g transform="translate(-4088 1036)"><circle class="f" cx="4" cy="4" r="4" transform="translate(4113 -1036)"/></g><g transform="translate(-4063 1036)"><circle class="f" cx="4" cy="4" r="4" transform="translate(4113 -1036)"/></g><g transform="translate(-4038 1036)"><circle class="f" cx="4" cy="4" r="4" transform="translate(4113 -1036)"/></g></g><g transform="translate(3878.668 2015.905)"><path class="f" d="M439.63,134.407h-6.123l3.83-23.68h6.123Z" transform="translate(-325.711 -5.25)"/><path class="f" d="M583.546,106.056a15.089,15.089,0,0,0-5.492-1.008c-6.047,0-10.3,3.224-10.331,7.834-.05,3.4,3.049,5.29,5.366,6.424,2.369,1.159,3.174,1.915,3.174,2.948-.024,1.586-1.914,2.318-3.677,2.318a12.186,12.186,0,0,1-5.745-1.26l-.806-.378-.857,5.316a18.635,18.635,0,0,0,6.829,1.26c6.425,0,10.607-3.174,10.657-8.087.024-2.7-1.612-4.761-5.14-6.449-2.141-1.083-3.453-1.814-3.453-2.923.025-1.008,1.109-2.04,3.527-2.04a10.4,10.4,0,0,1,4.561.907l.554.251.833-5.113Z" transform="translate(-447.431)"/><path class="f" d="M800,126.018c.5-1.36,2.445-6.625,2.445-6.625-.025.051.5-1.385.806-2.267l.428,2.04s1.159,5.668,1.411,6.852Zm7.558-15.291h-4.736a3.021,3.021,0,0,0-3.2,1.965l-9.095,21.715h6.425s1.058-2.923,1.285-3.552h7.861c.176.831.731,3.552.731,3.552h5.669l-4.94-23.68Z" transform="translate(-655.742 -5.25)"/><path class="f" d="M180.952,110.727l-6,16.147L174.3,123.6a18.125,18.125,0,0,0-8.465-9.926l5.492,20.708H177.8l9.624-23.655h-6.474Z" transform="translate(-78.27 -5.25)"/><path class="h" d="M91.118,110.727H81.266l-.1.478c7.685,1.965,12.774,6.7,14.865,12.4l-2.142-10.883c-.353-1.512-1.436-1.941-2.771-1.991Z" transform="translate(0 -5.25)"/></g><text class="i" transform="translate(3960 2398)"><tspan x="0" y="0">Card Owner</tspan></text><text class="i" transform="translate(4492 2398)"><tspan x="-128.304" y="0">Expiration Date</tspan></text></g></svg>