<svg xmlns="http://www.w3.org/2000/svg" viewBox="0 0 730 726"><defs><style>.cls-1{fill:#99d3c7;opacity:0.1;}.cls-1,.cls-5,.cls-6{isolation:isolate;}.cls-2{opacity:0.2;}.cls-3{fill:#1dbc86;}.cls-10,.cls-4{fill:#fff;}.cls-5,.cls-9{opacity:0.5;}.cls-7{fill:#646567;}.cls-8{fill:#dc3030;}.cls-10{fill-rule:evenodd;}</style></defs><g id="Layer_2" data-name="Layer 2"><g id="Layer_1-2" data-name="Layer 1"><rect class="cls-1" y="20" width="676" height="686" rx="8"/><g class="cls-2"><circle class="cls-3" cx="701" cy="4" r="4"/><circle class="cls-3" cx="669" cy="4" r="4"/><circle class="cls-3" cx="637" cy="4" r="4"/><circle class="cls-3" cx="605" cy="4" r="4"/><circle class="cls-3" cx="573" cy="4" r="4"/><circle class="cls-3" cx="541" cy="4" r="4"/><circle class="cls-3" cx="701" cy="32" r="4"/><circle class="cls-3" cx="669" cy="32" r="4"/><circle class="cls-3" cx="637" cy="32" r="4"/><circle class="cls-3" cx="605" cy="32" r="4"/><circle class="cls-3" cx="573" cy="32" r="4"/><circle class="cls-3" cx="701" cy="60" r="4"/><circle class="cls-3" cx="669" cy="60" r="4"/><circle class="cls-3" cx="637" cy="60" r="4"/><circle class="cls-3" cx="605" cy="60" r="4"/><circle class="cls-3" cx="701" cy="88" r="4"/><circle class="cls-3" cx="669" cy="88" r="4"/><circle class="cls-3" cx="637" cy="88" r="4"/><circle class="cls-3" cx="701" cy="116" r="4"/><circle class="cls-3" cx="669" cy="116" r="4"/><circle class="cls-3" cx="701" cy="144" r="4"/></g><g class="cls-2"><circle class="cls-3" cx="716" cy="722" r="4"/><circle class="cls-3" cx="684" cy="722" r="4"/><circle class="cls-3" cx="652" cy="722" r="4"/><circle class="cls-3" cx="620" cy="722" r="4"/><circle class="cls-3" cx="588" cy="722" r="4"/><circle class="cls-3" cx="556" cy="722" r="4"/><circle class="cls-3" cx="716" cy="694" r="4"/><circle class="cls-3" cx="684" cy="694" r="4"/><circle class="cls-3" cx="652" cy="694" r="4"/><circle class="cls-3" cx="620" cy="694" r="4"/><circle class="cls-3" cx="588" cy="694" r="4"/><circle class="cls-3" cx="716" cy="666" r="4"/><circle class="cls-3" cx="684" cy="666" r="4"/><circle class="cls-3" cx="652" cy="666" r="4"/><circle class="cls-3" cx="620" cy="666" r="4"/><circle class="cls-3" cx="716" cy="638" r="4"/><circle class="cls-3" cx="684" cy="638" r="4"/><circle class="cls-3" cx="652" cy="638" r="4"/><circle class="cls-3" cx="716" cy="610" r="4"/><circle class="cls-3" cx="684" cy="610" r="4"/><circle class="cls-3" cx="716" cy="582" r="4"/></g><rect class="cls-4" x="109" y="74" width="385" height="602" rx="8"/><rect class="cls-1" x="138" y="119" width="327" height="44" rx="8"/><g class="cls-5"><g class="cls-6"><path class="cls-7" d="M167.35,146V135.28h6.27v1.06h-5v3.79h3.87v1.07h-3.87V146Z"/><path class="cls-7" d="M176.51,136.28a.83.83,0,0,1-1.41-.58.8.8,0,0,1,.25-.59.82.82,0,0,1,1.16,0,.79.79,0,0,1,.24.59A.8.8,0,0,1,176.51,136.28ZM175.33,146v-7.84h1.25V146Z"/><path class="cls-7" d="M179.12,146v-7.84h1.25v1.41a3.08,3.08,0,0,1,1-1.13A3,3,0,0,1,183,138v1.17a3.22,3.22,0,0,0-1.94.6,2.39,2.39,0,0,0-.64,1.91V146Z"/><path class="cls-7" d="M187.12,146.13a3.32,3.32,0,0,1-2.21-.67,2.49,2.49,0,0,1-.87-1.87h1.22c.1,1,.71,1.51,1.84,1.51s1.71-.41,1.71-1.24a1,1,0,0,0-.42-.87,4.3,4.3,0,0,0-1.41-.45,5,5,0,0,1-2.13-.79,1.88,1.88,0,0,1-.6-1.53,1.92,1.92,0,0,1,.82-1.61,3.1,3.1,0,0,1,1.84-.59c1.7,0,2.64.76,2.83,2.27h-1.2a1.49,1.49,0,0,0-.52-.94,1.83,1.83,0,0,0-1.13-.3,1.77,1.77,0,0,0-1.08.31,1,1,0,0,0-.4.82.89.89,0,0,0,.38.79,3.9,3.9,0,0,0,1.45.45,10.05,10.05,0,0,1,1.13.27,3.16,3.16,0,0,1,.84.38,1.44,1.44,0,0,1,.6.67,2.33,2.33,0,0,1,.19,1,2.2,2.2,0,0,1-.74,1.74A3.18,3.18,0,0,1,187.12,146.13Z"/><path class="cls-7" d="M194.27,146.11a1.91,1.91,0,0,1-2.11-2.07v-4.83H191v-1.05h1.13v-1.79h1.24v1.79h1.83v1.05H193.4v4.71c0,.75.33,1.13,1,1.13a2.61,2.61,0,0,0,1-.16v1.05A3.2,3.2,0,0,1,194.27,146.11Z"/><path class="cls-7" d="M201.28,146V135.28H203l5.22,8.86v-8.86h1.25V146h-1.5l-5.42-9.2V146Z"/><path class="cls-7" d="M214,146.13a3,3,0,0,1-1.88-.57,2.11,2.11,0,0,1-.73-1.73,2,2,0,0,1,1.12-1.85,6,6,0,0,1,2.81-.59h1.13v-.56a1.94,1.94,0,0,0-.39-1.36,1.7,1.7,0,0,0-1.29-.42c-1.08,0-1.68.48-1.8,1.41h-1.25a2.4,2.4,0,0,1,1-1.85,3.72,3.72,0,0,1,2.12-.59c1.91,0,2.86.94,2.86,2.81V146h-1.24v-1A3,3,0,0,1,214,146.13Zm.12-1a2.66,2.66,0,0,0,1.68-.5,1.66,1.66,0,0,0,.65-1.38v-1h-1.08c-1.82,0-2.73.52-2.73,1.55C212.65,144.71,213.14,145.14,214.13,145.14Z"/><path class="cls-7" d="M220.15,146v-7.84h1.24v1.2a2.35,2.35,0,0,1,.91-1,2.82,2.82,0,0,1,1.43-.37,2.23,2.23,0,0,1,2.3,1.47,2.56,2.56,0,0,1,1.13-1.1,3.6,3.6,0,0,1,1.55-.37,2.52,2.52,0,0,1,1.9.76,3.23,3.23,0,0,1,.74,2.36V146h-1.24v-4.95c0-1.3-.56-2-1.67-2a2.09,2.09,0,0,0-1.45.56,2,2,0,0,0-.62,1.54V146h-1.24v-4.95c0-1.3-.56-2-1.67-2a2.09,2.09,0,0,0-1.45.56,2,2,0,0,0-.62,1.54V146Z"/><path class="cls-7" d="M237,146.13a3.68,3.68,0,0,1-2.74-1.08,4,4,0,0,1-1.06-2.89V142a4.16,4.16,0,0,1,1-2.9,3.71,3.71,0,0,1,5.16-.15,3.85,3.85,0,0,1,1,2.93v.41H234.5a3.16,3.16,0,0,0,.69,2.06,2.33,2.33,0,0,0,1.83.71c1.23,0,1.93-.45,2.09-1.36h1.24a2.55,2.55,0,0,1-1.09,1.77A3.83,3.83,0,0,1,237,146.13Zm-2.46-4.81h4.59c-.11-1.51-.86-2.27-2.25-2.27a2.15,2.15,0,0,0-1.56.61A2.91,2.91,0,0,0,234.55,141.32Z"/></g><g class="cls-6"><path class="cls-8" d="M243.14,139.87l-.85-.62,1.24-1.66-1.84-.44.33-1,1.77.73-.11-2h1.1l-.11,2,1.76-.73.33,1-1.86.44,1.24,1.66-.84.62-1.11-1.8Z"/></g></g><rect class="cls-1" x="138" y="186" width="327" height="44" rx="8"/><g class="cls-5"><g class="cls-6"><path class="cls-7" d="M167.35,213V202.28h1.3v9.65h4.91V213Z"/><path class="cls-7" d="M177.25,213.13a3,3,0,0,1-1.88-.57,2.08,2.08,0,0,1-.73-1.73,2,2,0,0,1,1.12-1.85,6,6,0,0,1,2.81-.59h1.12v-.56a1.94,1.94,0,0,0-.39-1.36,1.68,1.68,0,0,0-1.28-.42c-1.08,0-1.69.48-1.81,1.41H175a2.4,2.4,0,0,1,1-1.85,3.69,3.69,0,0,1,2.11-.59c1.91,0,2.87.94,2.87,2.81V213h-1.25v-1A3,3,0,0,1,177.25,213.13Zm.12-1a2.61,2.61,0,0,0,1.67-.5,1.63,1.63,0,0,0,.65-1.38v-1h-1.08c-1.82,0-2.73.52-2.73,1.55C175.88,211.71,176.38,212.14,177.37,212.14Z"/><path class="cls-7" d="M185.81,213.13a3.33,3.33,0,0,1-2.21-.67,2.51,2.51,0,0,1-.86-1.87H184c.1,1,.72,1.51,1.85,1.51s1.71-.41,1.71-1.24a1,1,0,0,0-.43-.87,4.14,4.14,0,0,0-1.4-.45,5,5,0,0,1-2.13-.79,2.1,2.1,0,0,1,.22-3.14,3.05,3.05,0,0,1,1.83-.59c1.7,0,2.65.76,2.84,2.27h-1.2a1.5,1.5,0,0,0-.53-.94,1.8,1.8,0,0,0-1.12-.3,1.77,1.77,0,0,0-1.08.31,1,1,0,0,0-.41.82.87.87,0,0,0,.39.79,3.77,3.77,0,0,0,1.44.45,10.9,10.9,0,0,1,1.14.27,3.47,3.47,0,0,1,.84.38,1.55,1.55,0,0,1,.6.67,2.5,2.5,0,0,1,.18,1,2.17,2.17,0,0,1-.74,1.74A3.16,3.16,0,0,1,185.81,213.13Z"/><path class="cls-7" d="M193,213.11a2.11,2.11,0,0,1-1.58-.56,2.08,2.08,0,0,1-.54-1.51v-4.83h-1.12v-1.05h1.12v-1.79h1.25v1.79h1.83v1.05H192.1v4.71c0,.75.32,1.13,1,1.13a2.61,2.61,0,0,0,1-.16v1.05A3.14,3.14,0,0,1,193,213.11Z"/><path class="cls-7" d="M200,213V202.28h1.7l5.22,8.86v-8.86h1.24V213h-1.5l-5.41-9.2V213Z"/><path class="cls-7" d="M212.71,213.13a3,3,0,0,1-1.88-.57,2.08,2.08,0,0,1-.73-1.73,2,2,0,0,1,1.12-1.85,6,6,0,0,1,2.81-.59h1.12v-.56a1.94,1.94,0,0,0-.39-1.36,1.7,1.7,0,0,0-1.29-.42c-1.08,0-1.68.48-1.8,1.41h-1.24a2.4,2.4,0,0,1,1-1.85,3.69,3.69,0,0,1,2.11-.59c1.91,0,2.87.94,2.87,2.81V213h-1.25v-1A3,3,0,0,1,212.71,213.13Zm.12-1a2.61,2.61,0,0,0,1.67-.5,1.63,1.63,0,0,0,.65-1.38v-1h-1.08c-1.82,0-2.73.52-2.73,1.55C211.34,211.71,211.84,212.14,212.83,212.14Z"/><path class="cls-7" d="M218.84,213v-7.84h1.25v1.2a2.28,2.28,0,0,1,.91-1,2.79,2.79,0,0,1,1.43-.37,2.22,2.22,0,0,1,2.29,1.47,2.53,2.53,0,0,1,1.14-1.1,3.57,3.57,0,0,1,1.55-.37,2.54,2.54,0,0,1,1.9.76,3.27,3.27,0,0,1,.74,2.36V213H228.8v-4.95c0-1.3-.55-2-1.66-2a2.12,2.12,0,0,0-1.46.56,2,2,0,0,0-.61,1.54V213h-1.25v-4.95c0-1.3-.55-2-1.66-2a2.12,2.12,0,0,0-1.46.56,2,2,0,0,0-.61,1.54V213Z"/><path class="cls-7" d="M235.7,213.13a3.64,3.64,0,0,1-2.73-1.08,4,4,0,0,1-1.06-2.89V209a4.12,4.12,0,0,1,1-2.9,3.4,3.4,0,0,1,2.64-1.12,3.5,3.5,0,0,1,2.52,1,3.88,3.88,0,0,1,1,2.93v.41H233.2a3.21,3.21,0,0,0,.68,2.06,2.37,2.37,0,0,0,1.84.71c1.23,0,1.92-.45,2.08-1.36h1.25a2.57,2.57,0,0,1-1.1,1.77A3.83,3.83,0,0,1,235.7,213.13Zm-2.46-4.81h4.59c-.11-1.51-.86-2.27-2.25-2.27a2.15,2.15,0,0,0-1.56.61A2.91,2.91,0,0,0,233.24,208.32Z"/></g><g class="cls-6"><path class="cls-8" d="M241.84,206.87l-.86-.62,1.25-1.66-1.85-.44.33-1,1.77.73-.1-2h1.09l-.1,2,1.75-.73.33,1-1.86.44,1.25,1.66-.84.62-1.11-1.8Z"/></g></g><rect class="cls-1" x="138" y="253" width="327" height="44" rx="8"/><g class="cls-5"><g class="cls-6"><path class="cls-7" d="M166.54,280l3.69-10.72h1.71L175.57,280h-1.29l-1.05-3.09h-4.42l-1,3.09Zm4.48-9.64-1.85,5.52h3.71Z"/><path class="cls-7" d="M180.17,280.13a3.31,3.31,0,0,1-2.55-1,4,4,0,0,1-1-2.85v-.12a4.27,4.27,0,0,1,1-2.95,3.35,3.35,0,0,1,2.64-1.15,2.77,2.77,0,0,1,2.57,1.4v-5h1.24V280h-1.24v-1.35a3.32,3.32,0,0,1-2.69,1.48Zm.14-1a2.46,2.46,0,0,0,1.88-.76,3.08,3.08,0,0,0,.71-2.21V276a3.22,3.22,0,0,0-.65-2.21,2.57,2.57,0,0,0-3.67,0,3.42,3.42,0,0,0-.66,2.21v.12a3.19,3.19,0,0,0,.67,2.18A2.21,2.21,0,0,0,180.31,279.1Z"/><path class="cls-7" d="M189.58,280.13a3.35,3.35,0,0,1-2.56-1,4.06,4.06,0,0,1-1-2.85v-.12a4.27,4.27,0,0,1,1-2.95A3.35,3.35,0,0,1,189.7,272a2.78,2.78,0,0,1,2.57,1.4v-5h1.24V280h-1.24v-1.35a3.32,3.32,0,0,1-2.69,1.48Zm.14-1a2.44,2.44,0,0,0,1.87-.76,3.08,3.08,0,0,0,.72-2.21V276a3.28,3.28,0,0,0-.65-2.21,2.32,2.32,0,0,0-1.84-.75,2.28,2.28,0,0,0-1.83.79,3.37,3.37,0,0,0-.66,2.21v.12a3.14,3.14,0,0,0,.67,2.18A2.19,2.19,0,0,0,189.72,279.1Z"/><path class="cls-7" d="M196,280v-7.84h1.24v1.41a3.17,3.17,0,0,1,1-1.13,3,3,0,0,1,1.58-.42v1.17a3.18,3.18,0,0,0-1.93.6,2.39,2.39,0,0,0-.65,1.91V280Z"/><path class="cls-7" d="M204.66,280.13a3.66,3.66,0,0,1-2.74-1.08,4,4,0,0,1-1.06-2.89V276a4.12,4.12,0,0,1,1-2.9,3.42,3.42,0,0,1,2.65-1.12,3.5,3.5,0,0,1,2.51,1,3.88,3.88,0,0,1,1,2.93v.41h-5.91a3.21,3.21,0,0,0,.68,2.06,2.37,2.37,0,0,0,1.84.71c1.23,0,1.93-.45,2.08-1.36H208a2.59,2.59,0,0,1-1.09,1.77A3.83,3.83,0,0,1,204.66,280.13Zm-2.47-4.81h4.6c-.12-1.51-.87-2.27-2.25-2.27a2.13,2.13,0,0,0-1.56.61A2.91,2.91,0,0,0,202.19,275.32Z"/><path class="cls-7" d="M212.47,280.13a3.32,3.32,0,0,1-2.21-.67,2.44,2.44,0,0,1-.86-1.87h1.21c.1,1,.71,1.51,1.84,1.51s1.71-.41,1.71-1.24a1,1,0,0,0-.42-.87,4.3,4.3,0,0,0-1.41-.45,5,5,0,0,1-2.13-.79,1.88,1.88,0,0,1-.6-1.53,1.92,1.92,0,0,1,.82-1.61,3.1,3.1,0,0,1,1.84-.59c1.7,0,2.64.76,2.83,2.27H213.9a1.55,1.55,0,0,0-.53-.94,1.83,1.83,0,0,0-1.13-.3,1.77,1.77,0,0,0-1.08.31,1,1,0,0,0-.4.82.89.89,0,0,0,.38.79,3.9,3.9,0,0,0,1.45.45,10.05,10.05,0,0,1,1.13.27,3.16,3.16,0,0,1,.84.38,1.44,1.44,0,0,1,.6.67,2.33,2.33,0,0,1,.19,1,2.2,2.2,0,0,1-.74,1.74A3.18,3.18,0,0,1,212.47,280.13Z"/><path class="cls-7" d="M219.67,280.13a3.32,3.32,0,0,1-2.21-.67,2.49,2.49,0,0,1-.87-1.87h1.22c.1,1,.71,1.51,1.84,1.51s1.71-.41,1.71-1.24a1,1,0,0,0-.42-.87,4.3,4.3,0,0,0-1.41-.45,5,5,0,0,1-2.13-.79,1.88,1.88,0,0,1-.6-1.53,1.92,1.92,0,0,1,.82-1.61,3.1,3.1,0,0,1,1.84-.59c1.7,0,2.64.76,2.83,2.27h-1.2a1.49,1.49,0,0,0-.52-.94,1.83,1.83,0,0,0-1.13-.3,1.77,1.77,0,0,0-1.08.31,1,1,0,0,0-.4.82.89.89,0,0,0,.38.79,3.9,3.9,0,0,0,1.45.45,10.05,10.05,0,0,1,1.13.27,3.16,3.16,0,0,1,.84.38,1.44,1.44,0,0,1,.6.67,2.33,2.33,0,0,1,.19,1,2.2,2.2,0,0,1-.74,1.74A3.18,3.18,0,0,1,219.67,280.13Z"/><path class="cls-7" d="M228.5,280V269.28h1.31v9.65h4.9V280Z"/><path class="cls-7" d="M237.65,270.28a.83.83,0,0,1-1.41-.58.8.8,0,0,1,.25-.59.82.82,0,0,1,1.16,0,.79.79,0,0,1,.24.59A.8.8,0,0,1,237.65,270.28ZM236.47,280v-7.84h1.24V280Z"/><path class="cls-7" d="M240.26,280v-7.84h1.25v1.24a2.29,2.29,0,0,1,.94-1A3.06,3.06,0,0,1,244,272a2.67,2.67,0,0,1,2,.77,3.34,3.34,0,0,1,.74,2.39V280h-1.25v-4.91a2.16,2.16,0,0,0-.45-1.51,1.82,1.82,0,0,0-1.39-.48,2.23,2.23,0,0,0-1.55.57,2,2,0,0,0-.64,1.58V280Z"/><path class="cls-7" d="M252.44,280.13a3.64,3.64,0,0,1-2.73-1.08,4,4,0,0,1-1.06-2.89V276a4.12,4.12,0,0,1,1-2.9,3.4,3.4,0,0,1,2.64-1.12,3.5,3.5,0,0,1,2.52,1,3.88,3.88,0,0,1,1,2.93v.41h-5.91a3.21,3.21,0,0,0,.68,2.06,2.37,2.37,0,0,0,1.84.71c1.23,0,1.92-.45,2.08-1.36h1.25a2.57,2.57,0,0,1-1.1,1.77A3.83,3.83,0,0,1,252.44,280.13ZM250,275.32h4.59c-.11-1.51-.86-2.27-2.25-2.27a2.15,2.15,0,0,0-1.56.61A2.91,2.91,0,0,0,250,275.32Z"/><path class="cls-7" d="M263.36,280v-9.43l-2.4,1.72v-1.21l2.49-1.8h1.22V280Z"/></g><g class="cls-6"><path class="cls-8" d="M268.54,273.87l-.86-.62,1.25-1.66-1.85-.44.33-1,1.77.73-.1-2h1.09l-.1,2,1.75-.73.33,1-1.86.44,1.25,1.66-.84.62-1.11-1.8Z"/></g></g><rect class="cls-1" x="138" y="320" width="327" height="44" rx="8"/><g class="cls-5"><g class="cls-6"><path class="cls-7" d="M166.54,347l3.69-10.72h1.71L175.57,347h-1.29l-1.05-3.09h-4.42l-1,3.09Zm4.48-9.64-1.85,5.52h3.71Z"/><path class="cls-7" d="M180.17,347.13a3.31,3.31,0,0,1-2.55-1,4,4,0,0,1-1-2.85v-.12a4.27,4.27,0,0,1,1-2.95,3.35,3.35,0,0,1,2.64-1.15,2.77,2.77,0,0,1,2.57,1.4v-5h1.24V347h-1.24v-1.35a3.32,3.32,0,0,1-2.69,1.48Zm.14-1a2.46,2.46,0,0,0,1.88-.76,3.08,3.08,0,0,0,.71-2.21V343a3.22,3.22,0,0,0-.65-2.21,2.57,2.57,0,0,0-3.67,0,3.42,3.42,0,0,0-.66,2.21v.12a3.19,3.19,0,0,0,.67,2.18A2.21,2.21,0,0,0,180.31,346.1Z"/><path class="cls-7" d="M189.58,347.13a3.35,3.35,0,0,1-2.56-1,4.06,4.06,0,0,1-1-2.85v-.12a4.27,4.27,0,0,1,1-2.95A3.35,3.35,0,0,1,189.7,339a2.78,2.78,0,0,1,2.57,1.4v-5h1.24V347h-1.24v-1.35a3.32,3.32,0,0,1-2.69,1.48Zm.14-1a2.44,2.44,0,0,0,1.87-.76,3.08,3.08,0,0,0,.72-2.21V343a3.28,3.28,0,0,0-.65-2.21,2.32,2.32,0,0,0-1.84-.75,2.28,2.28,0,0,0-1.83.79,3.37,3.37,0,0,0-.66,2.21v.12a3.14,3.14,0,0,0,.67,2.18A2.19,2.19,0,0,0,189.72,346.1Z"/><path class="cls-7" d="M196,347v-7.84h1.24v1.41a3.17,3.17,0,0,1,1-1.13,3,3,0,0,1,1.58-.42v1.17a3.18,3.18,0,0,0-1.93.6,2.39,2.39,0,0,0-.65,1.91V347Z"/><path class="cls-7" d="M204.66,347.13a3.66,3.66,0,0,1-2.74-1.08,4,4,0,0,1-1.06-2.89V343a4.12,4.12,0,0,1,1-2.9,3.42,3.42,0,0,1,2.65-1.12,3.5,3.5,0,0,1,2.51,1,3.88,3.88,0,0,1,1,2.93v.41h-5.91a3.21,3.21,0,0,0,.68,2.06,2.37,2.37,0,0,0,1.84.71c1.23,0,1.93-.45,2.08-1.36H208a2.59,2.59,0,0,1-1.09,1.77A3.83,3.83,0,0,1,204.66,347.13Zm-2.47-4.81h4.6c-.12-1.51-.87-2.27-2.25-2.27a2.13,2.13,0,0,0-1.56.61A2.91,2.91,0,0,0,202.19,342.32Z"/><path class="cls-7" d="M212.47,347.13a3.32,3.32,0,0,1-2.21-.67,2.44,2.44,0,0,1-.86-1.87h1.21c.1,1,.71,1.51,1.84,1.51s1.71-.41,1.71-1.24a1,1,0,0,0-.42-.87,4.3,4.3,0,0,0-1.41-.45,5,5,0,0,1-2.13-.79,1.88,1.88,0,0,1-.6-1.53,1.92,1.92,0,0,1,.82-1.61,3.1,3.1,0,0,1,1.84-.59c1.7,0,2.64.76,2.83,2.27H213.9a1.55,1.55,0,0,0-.53-.94,1.83,1.83,0,0,0-1.13-.3,1.77,1.77,0,0,0-1.08.31,1,1,0,0,0-.4.82.89.89,0,0,0,.38.79,3.9,3.9,0,0,0,1.45.45,10.05,10.05,0,0,1,1.13.27,3.16,3.16,0,0,1,.84.38,1.44,1.44,0,0,1,.6.67,2.33,2.33,0,0,1,.19,1,2.2,2.2,0,0,1-.74,1.74A3.18,3.18,0,0,1,212.47,347.13Z"/><path class="cls-7" d="M219.67,347.13a3.32,3.32,0,0,1-2.21-.67,2.49,2.49,0,0,1-.87-1.87h1.22c.1,1,.71,1.51,1.84,1.51s1.71-.41,1.71-1.24a1,1,0,0,0-.42-.87,4.3,4.3,0,0,0-1.41-.45,5,5,0,0,1-2.13-.79,1.88,1.88,0,0,1-.6-1.53,1.92,1.92,0,0,1,.82-1.61,3.1,3.1,0,0,1,1.84-.59c1.7,0,2.64.76,2.83,2.27h-1.2a1.49,1.49,0,0,0-.52-.94,1.83,1.83,0,0,0-1.13-.3,1.77,1.77,0,0,0-1.08.31,1,1,0,0,0-.4.82.89.89,0,0,0,.38.79,3.9,3.9,0,0,0,1.45.45,10.05,10.05,0,0,1,1.13.27,3.16,3.16,0,0,1,.84.38,1.44,1.44,0,0,1,.6.67,2.33,2.33,0,0,1,.19,1,2.2,2.2,0,0,1-.74,1.74A3.18,3.18,0,0,1,219.67,347.13Z"/><path class="cls-7" d="M228.5,347V336.28h1.31v9.65h4.9V347Z"/><path class="cls-7" d="M237.65,337.28a.83.83,0,0,1-1.41-.58.8.8,0,0,1,.25-.59.82.82,0,0,1,1.16,0,.79.79,0,0,1,.24.59A.8.8,0,0,1,237.65,337.28ZM236.47,347v-7.84h1.24V347Z"/><path class="cls-7" d="M240.26,347v-7.84h1.25v1.24a2.29,2.29,0,0,1,.94-1A3.06,3.06,0,0,1,244,339a2.67,2.67,0,0,1,2,.77,3.34,3.34,0,0,1,.74,2.39V347h-1.25v-4.91a2.16,2.16,0,0,0-.45-1.51,1.82,1.82,0,0,0-1.39-.48,2.23,2.23,0,0,0-1.55.57,2,2,0,0,0-.64,1.58V347Z"/><path class="cls-7" d="M252.44,347.13a3.64,3.64,0,0,1-2.73-1.08,4,4,0,0,1-1.06-2.89V343a4.12,4.12,0,0,1,1-2.9,3.4,3.4,0,0,1,2.64-1.12,3.5,3.5,0,0,1,2.52,1,3.88,3.88,0,0,1,1,2.93v.41h-5.91a3.21,3.21,0,0,0,.68,2.06,2.37,2.37,0,0,0,1.84.71c1.23,0,1.92-.45,2.08-1.36h1.25a2.57,2.57,0,0,1-1.1,1.77A3.83,3.83,0,0,1,252.44,347.13ZM250,342.32h4.59c-.11-1.51-.86-2.27-2.25-2.27a2.15,2.15,0,0,0-1.56.61A2.91,2.91,0,0,0,250,342.32Z"/><path class="cls-7" d="M260.75,347v-.3l4.26-4.49a4.67,4.67,0,0,0,1.55-3.1,1.94,1.94,0,0,0-.5-1.41,1.91,1.91,0,0,0-1.42-.51c-1.31,0-2.07.8-2.27,2.39h-1.21a3.88,3.88,0,0,1,1-2.52,3.33,3.33,0,0,1,2.44-.92A3.29,3.29,0,0,1,267,337a2.84,2.84,0,0,1,.88,2.2q0,1.77-2.16,3.89l-3,2.88h5.18V347Z"/></g><g class="cls-6"><path class="cls-8" d="M270.86,340.87l-.85-.62,1.24-1.66-1.84-.44.33-1,1.77.73-.11-2h1.1l-.11,2,1.76-.73.33,1-1.86.44,1.24,1.66-.84.62-1.11-1.8Z"/></g></g><rect class="cls-1" x="138" y="387" width="327" height="44" rx="8"/><g class="cls-5"><g class="cls-6"><path class="cls-7" d="M167.35,414V403.28h1.3v9.65h4.91V414Z"/><path class="cls-7" d="M178.39,414.13a3.62,3.62,0,0,1-2.75-1.13,3.92,3.92,0,0,1-1.09-2.86V410a4,4,0,0,1,1.09-2.89,4,4,0,0,1,5.53,0,3.91,3.91,0,0,1,1.09,2.87v.12a4,4,0,0,1-1.09,2.89A3.74,3.74,0,0,1,178.39,414.13Zm0-1a2.32,2.32,0,0,0,1.87-.81,3.14,3.14,0,0,0,.7-2.15V410a3.18,3.18,0,0,0-.7-2.17,2.54,2.54,0,0,0-3.74,0,3.22,3.22,0,0,0-.69,2.16v.11a3.2,3.2,0,0,0,.69,2.16A2.35,2.35,0,0,0,178.4,413.1Z"/><path class="cls-7" d="M187.45,414.13a3.73,3.73,0,0,1-2.75-1.08,3.9,3.9,0,0,1-1.09-2.89V410a4,4,0,0,1,1.1-2.9,3.65,3.65,0,0,1,2.71-1.12,3.83,3.83,0,0,1,2.29.67,2.79,2.79,0,0,1,1.11,2.07h-1.23a1.92,1.92,0,0,0-2.17-1.71,2.32,2.32,0,0,0-1.81.82,3.22,3.22,0,0,0-.71,2.17v.12a3.11,3.11,0,0,0,.7,2.18,2.41,2.41,0,0,0,1.86.76,2.44,2.44,0,0,0,1.53-.5,2,2,0,0,0,.72-1.42h1.16a3.1,3.1,0,0,1-1.07,2.12A3.43,3.43,0,0,1,187.45,414.13Z"/><path class="cls-7" d="M194.71,414.13a3,3,0,0,1-1.88-.57,2.08,2.08,0,0,1-.73-1.73,2,2,0,0,1,1.12-1.85,6,6,0,0,1,2.81-.59h1.12v-.56a1.94,1.94,0,0,0-.39-1.36,1.7,1.7,0,0,0-1.29-.42c-1.08,0-1.68.48-1.8,1.41h-1.24a2.4,2.4,0,0,1,1-1.85,3.69,3.69,0,0,1,2.11-.59c1.91,0,2.87.94,2.87,2.81V414h-1.25v-1A3,3,0,0,1,194.71,414.13Zm.12-1a2.61,2.61,0,0,0,1.67-.5,1.63,1.63,0,0,0,.65-1.38v-1h-1.08c-1.82,0-2.73.52-2.73,1.55S193.84,413.14,194.83,413.14Z"/><path class="cls-7" d="M200.87,414V402.41h1.26V414Z"/><path class="cls-7" d="M213.41,414.13a4.93,4.93,0,0,1-3.8-1.5,5.59,5.59,0,0,1-1.39-3.92v-.12a5.58,5.58,0,0,1,1.45-3.93,5.36,5.36,0,0,1,6.67-.7,3.56,3.56,0,0,1,1.44,2.55h-1.31a2.71,2.71,0,0,0-3-2.37,3.55,3.55,0,0,0-2.84,1.21,4.84,4.84,0,0,0-1,3.22v.12a4.86,4.86,0,0,0,1,3.22,3.53,3.53,0,0,0,2.85,1.18,3.19,3.19,0,0,0,2.51-.95,3.71,3.71,0,0,0,.87-2.47h-3.14v-1.08h4.41v.79a4.32,4.32,0,0,1-4.65,4.75Z"/><path class="cls-7" d="M223.42,414.13a3.62,3.62,0,0,1-2.75-1.13,3.92,3.92,0,0,1-1.09-2.86V410a4,4,0,0,1,1.09-2.89,4,4,0,0,1,5.53,0,3.91,3.91,0,0,1,1.09,2.87v.12a4,4,0,0,1-1.1,2.89A3.72,3.72,0,0,1,223.42,414.13Zm0-1a2.34,2.34,0,0,0,1.87-.81,3.14,3.14,0,0,0,.7-2.15V410a3.18,3.18,0,0,0-.7-2.17,2.54,2.54,0,0,0-3.74,0,3.22,3.22,0,0,0-.69,2.16v.11a3.2,3.2,0,0,0,.69,2.16A2.35,2.35,0,0,0,223.43,413.1Z"/><path class="cls-7" d="M231,414l-2.85-7.84h1.35l2.33,6.58,2.29-6.58h1.29L232.55,414Z"/><path class="cls-7" d="M240,414.13a3.64,3.64,0,0,1-2.73-1.08,4,4,0,0,1-1.06-2.89V410a4.12,4.12,0,0,1,1-2.9,3.4,3.4,0,0,1,2.64-1.12,3.5,3.5,0,0,1,2.52,1,3.88,3.88,0,0,1,1,2.93v.41h-5.91a3.21,3.21,0,0,0,.68,2.06,2.37,2.37,0,0,0,1.84.71c1.23,0,1.92-.45,2.08-1.36h1.25a2.57,2.57,0,0,1-1.1,1.77A3.83,3.83,0,0,1,240,414.13Zm-2.46-4.81h4.59c-.11-1.51-.86-2.27-2.25-2.27a2.15,2.15,0,0,0-1.56.61A2.91,2.91,0,0,0,237.53,409.32Z"/><path class="cls-7" d="M245.3,414v-7.84h1.25v1.41a3.08,3.08,0,0,1,1-1.13,3,3,0,0,1,1.58-.42v1.17a3.22,3.22,0,0,0-1.94.6,2.39,2.39,0,0,0-.64,1.91V414Z"/><path class="cls-7" d="M250.94,414v-7.84h1.25v1.24a2.29,2.29,0,0,1,.94-1,3.06,3.06,0,0,1,1.58-.39,2.67,2.67,0,0,1,2,.77,3.34,3.34,0,0,1,.74,2.39V414h-1.25v-4.91a2.16,2.16,0,0,0-.45-1.51,1.82,1.82,0,0,0-1.39-.48,2.23,2.23,0,0,0-1.55.57,2,2,0,0,0-.64,1.58V414Z"/><path class="cls-7" d="M259.91,414v-7.84h1.25v1.2a2.28,2.28,0,0,1,.91-1,2.79,2.79,0,0,1,1.43-.37,2.22,2.22,0,0,1,2.29,1.47,2.53,2.53,0,0,1,1.14-1.1,3.57,3.57,0,0,1,1.55-.37,2.54,2.54,0,0,1,1.9.76,3.27,3.27,0,0,1,.74,2.36V414h-1.25v-4.95c0-1.3-.55-1.95-1.66-1.95a2.12,2.12,0,0,0-1.46.56,2,2,0,0,0-.61,1.54V414h-1.25v-4.95c0-1.3-.55-1.95-1.66-1.95a2.12,2.12,0,0,0-1.46.56,2,2,0,0,0-.61,1.54V414Z"/><path class="cls-7" d="M276.77,414.13a3.64,3.64,0,0,1-2.73-1.08,4,4,0,0,1-1.06-2.89V410a4.12,4.12,0,0,1,1-2.9,3.4,3.4,0,0,1,2.64-1.12,3.5,3.5,0,0,1,2.52,1,3.88,3.88,0,0,1,1,2.93v.41h-5.91a3.21,3.21,0,0,0,.68,2.06,2.37,2.37,0,0,0,1.84.71c1.23,0,1.92-.45,2.08-1.36h1.25a2.57,2.57,0,0,1-1.1,1.77A3.83,3.83,0,0,1,276.77,414.13Zm-2.46-4.81h4.59c-.11-1.51-.86-2.27-2.25-2.27a2.15,2.15,0,0,0-1.56.61A2.91,2.91,0,0,0,274.31,409.32Z"/><path class="cls-7" d="M282.08,414v-7.84h1.25v1.24a2.29,2.29,0,0,1,.94-1,3.06,3.06,0,0,1,1.58-.39,2.67,2.67,0,0,1,2,.77,3.34,3.34,0,0,1,.74,2.39V414h-1.25v-4.91a2.16,2.16,0,0,0-.45-1.51,1.82,1.82,0,0,0-1.39-.48,2.23,2.23,0,0,0-1.55.57,2,2,0,0,0-.64,1.58V414Z"/><path class="cls-7" d="M293.44,414.11a2.11,2.11,0,0,1-1.58-.56,2.08,2.08,0,0,1-.54-1.51v-4.83H290.2v-1h1.12v-1.79h1.25v1.79h1.83v1h-1.83v4.71c0,.75.32,1.13,1,1.13a2.61,2.61,0,0,0,1-.16v1.05A3.14,3.14,0,0,1,293.44,414.11Z"/></g><g class="cls-6"><path class="cls-8" d="M297.2,407.87l-.85-.62,1.24-1.66-1.84-.44.33-1,1.77.73-.11-2h1.1l-.11,2,1.76-.73.33,1-1.86.44,1.24,1.66-.84.62-1.11-1.8Z"/></g></g><rect class="cls-1" x="138" y="454" width="327" height="44" rx="8"/><g class="cls-5"><g class="cls-6"><path class="cls-7" d="M170.81,481.13a4.14,4.14,0,0,1-3-.93,3.93,3.93,0,0,1-1.13-2.47H168a4.19,4.19,0,0,0,.22.91,2.17,2.17,0,0,0,.44.74,1.85,1.85,0,0,0,.85.53,4.21,4.21,0,0,0,1.32.18,2.67,2.67,0,0,0,1.75-.57,1.77,1.77,0,0,0,.7-1.46,1.66,1.66,0,0,0-.54-1.37,4.54,4.54,0,0,0-2.05-.68,6.09,6.09,0,0,1-2.71-.94,2.4,2.4,0,0,1-.88-2,2.61,2.61,0,0,1,1-2.08,3.69,3.69,0,0,1,2.47-.83,4,4,0,0,1,2.58.77,3.07,3.07,0,0,1,1.11,2.18h-1.17a2.26,2.26,0,0,0-.8-1.45,2.82,2.82,0,0,0-1.72-.45,2.53,2.53,0,0,0-1.65.48,1.56,1.56,0,0,0-.59,1.26,1.51,1.51,0,0,0,.52,1.26,4.6,4.6,0,0,0,2.07.66,6.19,6.19,0,0,1,2.76,1,2.54,2.54,0,0,1,.88,2.14,2.86,2.86,0,0,1-1.06,2.26A3.92,3.92,0,0,1,170.81,481.13Z"/><path class="cls-7" d="M179.05,481.11a2.11,2.11,0,0,1-1.58-.56,2.08,2.08,0,0,1-.54-1.51v-4.83h-1.12v-1h1.12v-1.79h1.25v1.79H180v1h-1.83v4.71c0,.75.32,1.13,1,1.13a2.61,2.61,0,0,0,1-.16v1.05A3.14,3.14,0,0,1,179.05,481.11Z"/><path class="cls-7" d="M184,481.13a3,3,0,0,1-1.88-.57,2.08,2.08,0,0,1-.73-1.73,2,2,0,0,1,1.12-1.85,6,6,0,0,1,2.81-.59h1.12v-.56a1.94,1.94,0,0,0-.39-1.36,1.7,1.7,0,0,0-1.29-.42c-1.08,0-1.68.48-1.8,1.41h-1.24a2.4,2.4,0,0,1,1-1.85,3.69,3.69,0,0,1,2.11-.59c1.91,0,2.87.94,2.87,2.81V481h-1.25v-1A3,3,0,0,1,184,481.13Zm.12-1a2.61,2.61,0,0,0,1.67-.5,1.63,1.63,0,0,0,.65-1.38v-1h-1.08c-1.82,0-2.73.52-2.73,1.55S183.16,480.14,184.15,480.14Z"/><path class="cls-7" d="M192.55,481.11a2.11,2.11,0,0,1-1.58-.56,2.08,2.08,0,0,1-.54-1.51v-4.83h-1.12v-1h1.12v-1.79h1.25v1.79h1.83v1h-1.83v4.71c0,.75.32,1.13,1,1.13a2.61,2.61,0,0,0,1-.16v1.05A3.14,3.14,0,0,1,192.55,481.11Z"/><path class="cls-7" d="M198.7,481.13a3.68,3.68,0,0,1-2.74-1.08,4,4,0,0,1-1.06-2.89V477a4.16,4.16,0,0,1,1-2.9,3.71,3.71,0,0,1,5.16-.15,3.85,3.85,0,0,1,1,2.93v.41h-5.91a3.16,3.16,0,0,0,.69,2.06,2.33,2.33,0,0,0,1.83.71c1.23,0,1.93-.45,2.09-1.36H202a2.55,2.55,0,0,1-1.09,1.77A3.83,3.83,0,0,1,198.7,481.13Zm-2.46-4.81h4.59c-.11-1.51-.86-2.27-2.25-2.27a2.15,2.15,0,0,0-1.56.61A2.91,2.91,0,0,0,196.24,476.32Z"/></g><g class="cls-6"><path class="cls-8" d="M204.83,474.87l-.85-.62,1.24-1.66-1.84-.44.33-1,1.77.73-.11-2h1.1l-.11,2,1.76-.73.33,1-1.86.44,1.24,1.66-.84.62-1.11-1.8Z"/></g></g><rect class="cls-1" x="138" y="521" width="327" height="44" rx="8"/><g class="cls-5"><g class="cls-6"><path class="cls-7" d="M167.35,548V537.28h3.05a4.39,4.39,0,0,1,2.7.77,2.73,2.73,0,0,1,1.05,2.36v.06a2.76,2.76,0,0,1-1.05,2.39,4.39,4.39,0,0,1-2.7.77h-1.75V548Zm1.3-5.4h1.83a2.5,2.5,0,0,0,1.75-.55,2,2,0,0,0,.61-1.58v-.06c0-1.39-.79-2.08-2.36-2.08h-1.83Z"/><path class="cls-7" d="M179,548.13a3.64,3.64,0,0,1-2.75-1.13,4,4,0,0,1-1.09-2.86V544a4,4,0,0,1,1.09-2.89,4,4,0,0,1,5.54,0,4,4,0,0,1,1.08,2.87v.12a4,4,0,0,1-1.09,2.89A3.74,3.74,0,0,1,179,548.13Zm0-1a2.35,2.35,0,0,0,1.87-.81,3.19,3.19,0,0,0,.69-2.15V544a3.23,3.23,0,0,0-.69-2.17,2.55,2.55,0,0,0-3.75,0,3.22,3.22,0,0,0-.69,2.16v.11a3.2,3.2,0,0,0,.69,2.16A2.37,2.37,0,0,0,179,547.1Z"/><path class="cls-7" d="M187.24,548.13a3.32,3.32,0,0,1-2.21-.67,2.44,2.44,0,0,1-.86-1.87h1.21c.1,1,.71,1.51,1.84,1.51s1.71-.41,1.71-1.24a1,1,0,0,0-.42-.87,4.3,4.3,0,0,0-1.41-.45,5,5,0,0,1-2.13-.79,1.88,1.88,0,0,1-.59-1.53,1.91,1.91,0,0,1,.81-1.61A3.1,3.1,0,0,1,187,540c1.7,0,2.64.76,2.83,2.27h-1.19a1.55,1.55,0,0,0-.53-.94,1.83,1.83,0,0,0-1.13-.3,1.77,1.77,0,0,0-1.08.31,1,1,0,0,0-.4.82.89.89,0,0,0,.38.79,3.9,3.9,0,0,0,1.45.45,10.05,10.05,0,0,1,1.13.27,3.16,3.16,0,0,1,.84.38,1.44,1.44,0,0,1,.6.67,2.33,2.33,0,0,1,.19,1,2.2,2.2,0,0,1-.74,1.74A3.18,3.18,0,0,1,187.24,548.13Z"/><path class="cls-7" d="M194.39,548.11a1.91,1.91,0,0,1-2.11-2.07v-4.83h-1.13v-1.05h1.13v-1.79h1.24v1.79h1.83v1.05h-1.83v4.71c0,.75.33,1.13,1,1.13a2.61,2.61,0,0,0,1-.16v1.05A3.2,3.2,0,0,1,194.39,548.11Z"/><path class="cls-7" d="M199.37,548.13a3,3,0,0,1-1.88-.57,2.11,2.11,0,0,1-.73-1.73,2,2,0,0,1,1.12-1.85,6,6,0,0,1,2.81-.59h1.13v-.56a1.94,1.94,0,0,0-.39-1.36,1.7,1.7,0,0,0-1.29-.42c-1.08,0-1.68.48-1.8,1.41h-1.25a2.4,2.4,0,0,1,1-1.85,3.72,3.72,0,0,1,2.12-.59c1.91,0,2.86.94,2.86,2.81V548h-1.24v-1A3,3,0,0,1,199.37,548.13Zm.12-1a2.66,2.66,0,0,0,1.68-.5,1.66,1.66,0,0,0,.65-1.38v-1h-1.08c-1.82,0-2.73.52-2.73,1.55C198,546.71,198.5,547.14,199.49,547.14Z"/><path class="cls-7" d="M205.54,548V536.41h1.26V548Z"/><path class="cls-7" d="M217.9,548.13a4.73,4.73,0,0,1-3.67-1.46,5.67,5.67,0,0,1-1.34-4v-.12a5.57,5.57,0,0,1,1.42-3.93,4.72,4.72,0,0,1,3.62-1.55,4.8,4.8,0,0,1,3,.92,3.49,3.49,0,0,1,1.38,2.59H221a2.74,2.74,0,0,0-3.05-2.48,3.35,3.35,0,0,0-2.68,1.21,4.84,4.84,0,0,0-1,3.22v.12a4.88,4.88,0,0,0,1,3.22,3.38,3.38,0,0,0,2.71,1.16,3.42,3.42,0,0,0,2.19-.67,2.91,2.91,0,0,0,1-1.95h1.21a4.12,4.12,0,0,1-1.45,2.75A4.76,4.76,0,0,1,217.9,548.13Z"/><path class="cls-7" d="M227.53,548.13a3.62,3.62,0,0,1-2.75-1.13,3.92,3.92,0,0,1-1.09-2.86V544a4,4,0,0,1,1.09-2.89,4,4,0,0,1,5.53,0A3.91,3.91,0,0,1,231.4,544v.12a4,4,0,0,1-1.1,2.89A3.72,3.72,0,0,1,227.53,548.13Zm0-1a2.34,2.34,0,0,0,1.87-.81,3.14,3.14,0,0,0,.7-2.15V544a3.18,3.18,0,0,0-.7-2.17,2.54,2.54,0,0,0-3.74,0A3.22,3.22,0,0,0,225,544v.11a3.2,3.2,0,0,0,.69,2.16A2.35,2.35,0,0,0,227.54,547.1Z"/><path class="cls-7" d="M236.29,548.13a3.35,3.35,0,0,1-2.56-1,4.06,4.06,0,0,1-1-2.85v-.12a4.27,4.27,0,0,1,1-3,3.35,3.35,0,0,1,2.64-1.15,2.77,2.77,0,0,1,2.56,1.4v-5h1.25V548H239v-1.35a3,3,0,0,1-1.11,1A3,3,0,0,1,236.29,548.13Zm.13-1a2.46,2.46,0,0,0,1.88-.76,3.08,3.08,0,0,0,.72-2.21V544a3.28,3.28,0,0,0-.65-2.21,2.32,2.32,0,0,0-1.84-.75,2.28,2.28,0,0,0-1.83.79,3.37,3.37,0,0,0-.66,2.21v.12a3.14,3.14,0,0,0,.67,2.18A2.17,2.17,0,0,0,236.42,547.1Z"/><path class="cls-7" d="M246,548.13a3.68,3.68,0,0,1-2.74-1.08,4,4,0,0,1-1.06-2.89V544a4.16,4.16,0,0,1,1-2.9,3.71,3.71,0,0,1,5.16-.15,3.85,3.85,0,0,1,1,2.93v.41h-5.91a3.16,3.16,0,0,0,.69,2.06,2.33,2.33,0,0,0,1.83.71c1.23,0,1.93-.45,2.09-1.36h1.24a2.55,2.55,0,0,1-1.09,1.77A3.83,3.83,0,0,1,246,548.13Zm-2.46-4.81h4.59c-.11-1.51-.86-2.27-2.25-2.27a2.15,2.15,0,0,0-1.56.61A2.91,2.91,0,0,0,243.49,543.32Z"/></g><g class="cls-6"><path class="cls-8" d="M252.08,541.87l-.85-.62,1.24-1.66-1.84-.44.33-1,1.77.73-.11-2h1.1l-.11,2,1.76-.73.33,1-1.86.44,1.24,1.66-.84.62-1.11-1.8Z"/></g></g><rect class="cls-1" x="138" y="588" width="327" height="44" rx="8"/><g class="cls-5"><g class="cls-6"><path class="cls-7" d="M171.83,615.13a4.69,4.69,0,0,1-3.66-1.46,5.62,5.62,0,0,1-1.34-4v-.12a5.57,5.57,0,0,1,1.42-3.93,4.7,4.7,0,0,1,3.62-1.55,4.77,4.77,0,0,1,3,.92,3.46,3.46,0,0,1,1.38,2.59h-1.29a2.73,2.73,0,0,0-3-2.48,3.38,3.38,0,0,0-2.69,1.21,4.84,4.84,0,0,0-1,3.22v.12a4.82,4.82,0,0,0,1,3.22,3.35,3.35,0,0,0,2.71,1.16,3.46,3.46,0,0,0,2.19-.67,2.9,2.9,0,0,0,1-1.95h1.22a4.16,4.16,0,0,1-1.45,2.75A4.81,4.81,0,0,1,171.83,615.13Z"/><path class="cls-7" d="M181.46,615.13a3.64,3.64,0,0,1-2.75-1.13,4,4,0,0,1-1.09-2.86V611a4,4,0,0,1,1.09-2.89,4,4,0,0,1,5.54,0,4,4,0,0,1,1.08,2.87v.12a4,4,0,0,1-1.09,2.89A3.74,3.74,0,0,1,181.46,615.13Zm0-1a2.35,2.35,0,0,0,1.87-.81,3.19,3.19,0,0,0,.69-2.15V611a3.23,3.23,0,0,0-.69-2.17,2.55,2.55,0,0,0-3.75,0,3.22,3.22,0,0,0-.69,2.16v.11a3.2,3.2,0,0,0,.69,2.16A2.37,2.37,0,0,0,181.48,614.1Z"/><path class="cls-7" d="M189.92,615.13a2.67,2.67,0,0,1-2-.73,3.07,3.07,0,0,1-.75-2.28v-5h1.25v4.9a2.22,2.22,0,0,0,.44,1.52,1.78,1.78,0,0,0,1.37.47,2.23,2.23,0,0,0,1.53-.56,2,2,0,0,0,.63-1.58v-4.75h1.25V615h-1.25v-1.24a2.32,2.32,0,0,1-.93,1A3,3,0,0,1,189.92,615.13Z"/><path class="cls-7" d="M196.18,615v-7.84h1.24v1.24a2.31,2.31,0,0,1,1-1,3,3,0,0,1,1.57-.39,2.69,2.69,0,0,1,2,.77,3.34,3.34,0,0,1,.74,2.39V615h-1.25v-4.91a2.16,2.16,0,0,0-.45-1.51,1.83,1.83,0,0,0-1.4-.48,2.25,2.25,0,0,0-1.55.57,2,2,0,0,0-.64,1.58V615Z"/><path class="cls-7" d="M207.53,615.11a1.91,1.91,0,0,1-2.11-2.07v-4.83h-1.13v-1.05h1.13v-1.79h1.24v1.79h1.83v1.05h-1.83v4.71c0,.75.33,1.13,1,1.13a2.61,2.61,0,0,0,1-.16v1.05A3.2,3.2,0,0,1,207.53,615.11Z"/><path class="cls-7" d="M210.47,615v-7.84h1.25v1.41a3.08,3.08,0,0,1,1-1.13,3,3,0,0,1,1.58-.42v1.17a3.22,3.22,0,0,0-1.94.6,2.39,2.39,0,0,0-.64,1.91V615Z"/><path class="cls-7" d="M216.89,617.73l1.49-3.54-3.08-7h1.34l2.4,5.62,2.17-5.62h1.28l-4.34,10.57Z"/></g><g class="cls-6"><path class="cls-8" d="M225,608.87l-.86-.62,1.25-1.66-1.85-.44.33-1,1.77.73-.1-2h1.09l-.1,2,1.75-.73.33,1-1.86.44,1.25,1.66-.84.62-1.11-1.8Z"/></g></g><rect class="cls-4" x="345" y="129" width="385" height="257" rx="8"/><rect class="cls-1" x="365" y="163" width="327" height="44" rx="8"/><g class="cls-5"><g class="cls-6"><path class="cls-7" d="M398.83,190.13a4.7,4.7,0,0,1-3.66-1.46,5.62,5.62,0,0,1-1.34-4v-.12a5.57,5.57,0,0,1,1.42-3.93,5.09,5.09,0,0,1,6.58-.63,3.46,3.46,0,0,1,1.38,2.59h-1.29a2.73,2.73,0,0,0-3-2.48,3.35,3.35,0,0,0-2.68,1.21,4.79,4.79,0,0,0-1,3.22v.12a4.82,4.82,0,0,0,1,3.22,3.35,3.35,0,0,0,2.71,1.16,3.41,3.41,0,0,0,2.18-.67,3,3,0,0,0,1.06-2h1.21a4.16,4.16,0,0,1-1.45,2.75A4.81,4.81,0,0,1,398.83,190.13Z"/><path class="cls-7" d="M407.32,190.13a3,3,0,0,1-1.88-.57,2.11,2.11,0,0,1-.73-1.73,2,2,0,0,1,1.12-1.85,6,6,0,0,1,2.81-.59h1.13v-.56a1.94,1.94,0,0,0-.39-1.36,1.7,1.7,0,0,0-1.29-.42c-1.08,0-1.68.48-1.8,1.41H405a2.4,2.4,0,0,1,1-1.85,3.67,3.67,0,0,1,2.11-.59c1.91,0,2.86.94,2.86,2.81V190h-1.24v-1A3,3,0,0,1,407.32,190.13Zm.13-1a2.65,2.65,0,0,0,1.67-.5,1.66,1.66,0,0,0,.65-1.38v-1h-1.08c-1.82,0-2.73.52-2.73,1.55C406,188.71,406.46,189.14,407.45,189.14Z"/><path class="cls-7" d="M413.46,190v-7.84h1.25v1.41a3.06,3.06,0,0,1,1-1.13,3,3,0,0,1,1.59-.42v1.17a3.19,3.19,0,0,0-1.94.6,2.39,2.39,0,0,0-.64,1.91V190Z"/><path class="cls-7" d="M421.83,190.13a3.35,3.35,0,0,1-2.56-1,4.06,4.06,0,0,1-1-2.85v-.12a4.27,4.27,0,0,1,1-3A3.35,3.35,0,0,1,422,182a2.77,2.77,0,0,1,2.56,1.4v-5h1.25V190h-1.25v-1.35a3,3,0,0,1-1.11,1A3,3,0,0,1,421.83,190.13Zm.13-1a2.46,2.46,0,0,0,1.88-.76,3.08,3.08,0,0,0,.72-2.21V186a3.28,3.28,0,0,0-.65-2.21,2.32,2.32,0,0,0-1.84-.75,2.28,2.28,0,0,0-1.83.79,3.37,3.37,0,0,0-.66,2.21v.12a3.14,3.14,0,0,0,.67,2.18A2.17,2.17,0,0,0,422,189.1Z"/><path class="cls-7" d="M432.34,190V179.28H434l5.22,8.86v-8.86h1.24V190H439l-5.41-9.2V190Z"/><path class="cls-7" d="M445.08,190.13a3,3,0,0,1-1.88-.57,2.08,2.08,0,0,1-.73-1.73,2,2,0,0,1,1.12-1.85,6,6,0,0,1,2.81-.59h1.12v-.56a1.94,1.94,0,0,0-.39-1.36,1.68,1.68,0,0,0-1.29-.42c-1.08,0-1.68.48-1.8,1.41H442.8a2.4,2.4,0,0,1,1-1.85,3.69,3.69,0,0,1,2.11-.59c1.91,0,2.87.94,2.87,2.81V190h-1.25v-1A3,3,0,0,1,445.08,190.13Zm.12-1a2.61,2.61,0,0,0,1.67-.5,1.63,1.63,0,0,0,.65-1.38v-1h-1.08c-1.82,0-2.73.52-2.73,1.55C443.71,188.71,444.21,189.14,445.2,189.14Z"/><path class="cls-7" d="M451.21,190v-7.84h1.25v1.2a2.28,2.28,0,0,1,.91-1,2.79,2.79,0,0,1,1.43-.37,2.22,2.22,0,0,1,2.29,1.47,2.53,2.53,0,0,1,1.14-1.1,3.57,3.57,0,0,1,1.55-.37,2.54,2.54,0,0,1,1.9.76,3.27,3.27,0,0,1,.74,2.36V190h-1.25v-4.95c0-1.3-.55-2-1.66-2a2.12,2.12,0,0,0-1.46.56,2,2,0,0,0-.61,1.54V190H456.2v-4.95c0-1.3-.56-2-1.67-2a2.12,2.12,0,0,0-1.46.56,2,2,0,0,0-.61,1.54V190Z"/><path class="cls-7" d="M468.07,190.13a3.65,3.65,0,0,1-2.73-1.08,4,4,0,0,1-1.06-2.89V186a4.12,4.12,0,0,1,1-2.9A3.42,3.42,0,0,1,468,182a3.5,3.5,0,0,1,2.51,1,3.88,3.88,0,0,1,1,2.93v.41h-5.91a3.21,3.21,0,0,0,.68,2.06,2.37,2.37,0,0,0,1.84.71c1.23,0,1.92-.45,2.08-1.36h1.25a2.57,2.57,0,0,1-1.1,1.77A3.83,3.83,0,0,1,468.07,190.13Zm-2.46-4.81h4.6c-.12-1.51-.87-2.27-2.25-2.27a2.16,2.16,0,0,0-1.57.61A2.91,2.91,0,0,0,465.61,185.32Z"/></g><g class="cls-6"><path class="cls-8" d="M474.21,183.87l-.86-.62,1.25-1.66-1.85-.44.33-1,1.77.73-.1-2h1.09l-.1,2,1.75-.73.33,1-1.86.44,1.25,1.66-.84.62-1.11-1.8Z"/></g></g><rect class="cls-1" x="365" y="230" width="327" height="44" rx="8"/><g class="cls-5"><g class="cls-6"><path class="cls-7" d="M398.83,257.13a4.7,4.7,0,0,1-3.66-1.46,5.62,5.62,0,0,1-1.34-4v-.12a5.57,5.57,0,0,1,1.42-3.93,5.09,5.09,0,0,1,6.58-.63,3.46,3.46,0,0,1,1.38,2.59h-1.29a2.73,2.73,0,0,0-3-2.48,3.35,3.35,0,0,0-2.68,1.21,4.79,4.79,0,0,0-1,3.22v.12a4.82,4.82,0,0,0,1,3.22,3.35,3.35,0,0,0,2.71,1.16,3.41,3.41,0,0,0,2.18-.67,3,3,0,0,0,1.06-2h1.21a4.16,4.16,0,0,1-1.45,2.75A4.81,4.81,0,0,1,398.83,257.13Z"/><path class="cls-7" d="M407.32,257.13a3,3,0,0,1-1.88-.57,2.11,2.11,0,0,1-.73-1.73,2,2,0,0,1,1.12-1.85,6,6,0,0,1,2.81-.59h1.13v-.56a1.94,1.94,0,0,0-.39-1.36,1.7,1.7,0,0,0-1.29-.42c-1.08,0-1.68.48-1.8,1.41H405a2.4,2.4,0,0,1,1-1.85,3.67,3.67,0,0,1,2.11-.59c1.91,0,2.86.94,2.86,2.81V257h-1.24v-1A3,3,0,0,1,407.32,257.13Zm.13-1a2.65,2.65,0,0,0,1.67-.5,1.66,1.66,0,0,0,.65-1.38v-1h-1.08c-1.82,0-2.73.52-2.73,1.55C406,255.71,406.46,256.14,407.45,256.14Z"/><path class="cls-7" d="M413.46,257v-7.84h1.25v1.41a3.06,3.06,0,0,1,1-1.13,3,3,0,0,1,1.59-.42v1.17a3.19,3.19,0,0,0-1.94.6,2.39,2.39,0,0,0-.64,1.91V257Z"/><path class="cls-7" d="M421.83,257.13a3.35,3.35,0,0,1-2.56-1,4.06,4.06,0,0,1-1-2.85v-.12a4.27,4.27,0,0,1,1-3A3.35,3.35,0,0,1,422,249a2.77,2.77,0,0,1,2.56,1.4v-5h1.25V257h-1.25v-1.35a3,3,0,0,1-1.11,1A3,3,0,0,1,421.83,257.13Zm.13-1a2.46,2.46,0,0,0,1.88-.76,3.08,3.08,0,0,0,.72-2.21V253a3.28,3.28,0,0,0-.65-2.21,2.32,2.32,0,0,0-1.84-.75,2.28,2.28,0,0,0-1.83.79,3.37,3.37,0,0,0-.66,2.21v.12a3.14,3.14,0,0,0,.67,2.18A2.17,2.17,0,0,0,422,256.1Z"/><path class="cls-7" d="M432.34,257V246.28H434l5.22,8.86v-8.86h1.24V257H439l-5.41-9.2V257Z"/><path class="cls-7" d="M445.77,257.13a2.71,2.71,0,0,1-2-.73,3.11,3.11,0,0,1-.74-2.28v-5h1.25v4.9a2.17,2.17,0,0,0,.44,1.52,1.77,1.77,0,0,0,1.37.47,2.18,2.18,0,0,0,1.52-.56,2,2,0,0,0,.64-1.58v-4.75h1.24V257h-1.24v-1.24a2.29,2.29,0,0,1-.94,1A3,3,0,0,1,445.77,257.13Z"/><path class="cls-7" d="M452,257v-7.84h1.25v1.2a2.28,2.28,0,0,1,.91-1,2.79,2.79,0,0,1,1.43-.37,2.22,2.22,0,0,1,2.29,1.47,2.53,2.53,0,0,1,1.14-1.1,3.57,3.57,0,0,1,1.55-.37,2.54,2.54,0,0,1,1.9.76,3.27,3.27,0,0,1,.74,2.36V257H462v-4.95c0-1.3-.55-2-1.66-2a2.07,2.07,0,0,0-1.45.56,2,2,0,0,0-.62,1.54V257H457v-4.95c0-1.3-.55-2-1.66-2a2.12,2.12,0,0,0-1.46.56,2,2,0,0,0-.61,1.54V257Z"/><path class="cls-7" d="M469.57,257.13a3.19,3.19,0,0,1-1.6-.39,2.81,2.81,0,0,1-1.05-1V257h-1.25V245.41h1.25v5.06a3.25,3.25,0,0,1,2.65-1.45,3.39,3.39,0,0,1,2.58,1.07,4.07,4.07,0,0,1,1,2.87v.13a4.26,4.26,0,0,1-1,2.93A3.29,3.29,0,0,1,469.57,257.13Zm-.11-1a2.18,2.18,0,0,0,1.78-.76,3.45,3.45,0,0,0,.61-2.2V253a3.19,3.19,0,0,0-.68-2.2,2.19,2.19,0,0,0-1.73-.78,2.43,2.43,0,0,0-1.85.76,3.1,3.1,0,0,0-.71,2.22v.11a3.15,3.15,0,0,0,.69,2.21A2.46,2.46,0,0,0,469.46,256.1Z"/><path class="cls-7" d="M478.29,257.13a3.68,3.68,0,0,1-2.74-1.08,4,4,0,0,1-1.06-2.89V253a4.16,4.16,0,0,1,1-2.9,3.71,3.71,0,0,1,5.16-.15,3.85,3.85,0,0,1,1,2.93v.41h-5.91a3.16,3.16,0,0,0,.69,2.06,2.33,2.33,0,0,0,1.83.71c1.23,0,1.93-.45,2.09-1.36h1.24a2.55,2.55,0,0,1-1.09,1.77A3.83,3.83,0,0,1,478.29,257.13Zm-2.46-4.81h4.59c-.11-1.51-.86-2.27-2.25-2.27a2.15,2.15,0,0,0-1.56.61A2.91,2.91,0,0,0,475.83,252.32Z"/><path class="cls-7" d="M483.6,257v-7.84h1.24v1.41a3.17,3.17,0,0,1,1-1.13,3,3,0,0,1,1.58-.42v1.17a3.18,3.18,0,0,0-1.93.6,2.39,2.39,0,0,0-.65,1.91V257Z"/></g><g class="cls-6"><path class="cls-8" d="M490.06,250.87l-.85-.62,1.24-1.66-1.84-.44.33-1,1.77.73-.11-2h1.1l-.11,2,1.76-.73.33,1-1.86.44,1.24,1.66-.84.62-1.11-1.8Z"/></g></g><rect class="cls-1" x="365" y="297" width="156" height="44" rx="8"/><g class="cls-5"><g class="cls-6"><path class="cls-7" d="M394.35,324V313.28h6.26v1.06h-5V318h4v1.06h-4v3.88h5.23V324Z"/><path class="cls-7" d="M402,324l2.81-4-2.62-3.8h1.45l1.92,2.85,1.91-2.85h1.34l-2.59,3.72,2.86,4.12h-1.47l-2.11-3.16L403.32,324Z"/><path class="cls-7" d="M410.74,326.73V316.16H412v1.31a3.25,3.25,0,0,1,2.65-1.45,3.38,3.38,0,0,1,2.58,1.07,4.07,4.07,0,0,1,1,2.87v.13a4.26,4.26,0,0,1-1,2.93,3.29,3.29,0,0,1-2.59,1.11,3.21,3.21,0,0,1-1.6-.39,2.81,2.81,0,0,1-1.05-1v4Zm3.79-3.63a2.18,2.18,0,0,0,1.78-.76,3.45,3.45,0,0,0,.61-2.2V320a3.19,3.19,0,0,0-.68-2.2,2.19,2.19,0,0,0-1.73-.78,2.43,2.43,0,0,0-1.85.76A3.1,3.1,0,0,0,412,320v.11a3.15,3.15,0,0,0,.69,2.21A2.46,2.46,0,0,0,414.53,323.1Z"/><path class="cls-7" d="M421.36,314.28a.82.82,0,0,1-1.16,0,.8.8,0,0,1-.24-.58.79.79,0,0,1,.24-.59.82.82,0,0,1,1.16,0,.79.79,0,0,1,.24.59A.8.8,0,0,1,421.36,314.28ZM420.18,324v-7.84h1.24V324Z"/><path class="cls-7" d="M424,324v-7.84h1.25v1.41a3.08,3.08,0,0,1,1-1.13,3,3,0,0,1,1.58-.42v1.17a3.22,3.22,0,0,0-1.94.6,2.39,2.39,0,0,0-.64,1.91V324Z"/><path class="cls-7" d="M430.39,326.73l1.49-3.54-3.08-7h1.34l2.4,5.62,2.17-5.62H436l-4.34,10.57Z"/><path class="cls-7" d="M441.69,324V313.28h2.83a4.92,4.92,0,0,1,5.44,5.26v.13a5.39,5.39,0,0,1-1.39,3.84,5.3,5.3,0,0,1-4.08,1.49Zm1.3-1.07h1.47a4,4,0,0,0,3.09-1.13,4.43,4.43,0,0,0,1.05-3.14v-.12a4.43,4.43,0,0,0-1-3.09,4,4,0,0,0-3.14-1.12H443Z"/><path class="cls-7" d="M454,324.13a3,3,0,0,1-1.88-.57,2.11,2.11,0,0,1-.73-1.73,2,2,0,0,1,1.12-1.85,6,6,0,0,1,2.81-.59h1.13v-.56a1.94,1.94,0,0,0-.39-1.36,1.7,1.7,0,0,0-1.29-.42c-1.08,0-1.68.48-1.8,1.41h-1.25a2.4,2.4,0,0,1,1-1.85,3.72,3.72,0,0,1,2.12-.59c1.91,0,2.86.94,2.86,2.81V324h-1.24v-1A3,3,0,0,1,454,324.13Zm.12-1a2.66,2.66,0,0,0,1.68-.5,1.66,1.66,0,0,0,.65-1.38v-1h-1.08c-1.82,0-2.73.52-2.73,1.55S453.13,323.14,454.12,323.14Z"/><path class="cls-7" d="M462.52,324.11a1.91,1.91,0,0,1-2.11-2.07v-4.83h-1.13v-1h1.13v-1.79h1.24v1.79h1.83v1h-1.83v4.71c0,.75.33,1.13,1,1.13a2.61,2.61,0,0,0,1-.16v1.05A3.2,3.2,0,0,1,462.52,324.11Z"/><path class="cls-7" d="M468.67,324.13a3.64,3.64,0,0,1-2.73-1.08,4,4,0,0,1-1.06-2.89V320a4.12,4.12,0,0,1,1-2.9,3.4,3.4,0,0,1,2.64-1.12,3.5,3.5,0,0,1,2.52,1,3.88,3.88,0,0,1,1,2.93v.41h-5.91a3.21,3.21,0,0,0,.68,2.06,2.37,2.37,0,0,0,1.84.71c1.23,0,1.92-.45,2.08-1.36H472a2.57,2.57,0,0,1-1.1,1.77A3.83,3.83,0,0,1,468.67,324.13Zm-2.46-4.81h4.59c-.11-1.51-.86-2.27-2.25-2.27a2.15,2.15,0,0,0-1.56.61A2.91,2.91,0,0,0,466.21,319.32Z"/></g><g class="cls-6"><path class="cls-8" d="M474.81,317.87l-.86-.62,1.25-1.66-1.85-.44.33-1,1.77.73-.1-2h1.09l-.1,2,1.75-.73.33,1-1.86.44,1.25,1.66-.84.62-1.11-1.8Z"/></g></g><rect class="cls-1" x="536" y="297" width="156" height="44" rx="8"/><g class="cls-5"><g class="cls-6"><path class="cls-7" d="M569.83,324.13a4.7,4.7,0,0,1-3.66-1.46,5.62,5.62,0,0,1-1.34-4v-.12a5.57,5.57,0,0,1,1.42-3.93,5.09,5.09,0,0,1,6.58-.63,3.46,3.46,0,0,1,1.38,2.59h-1.29a2.73,2.73,0,0,0-3-2.48,3.35,3.35,0,0,0-2.68,1.21,4.79,4.79,0,0,0-1,3.22v.12a4.82,4.82,0,0,0,1,3.22,3.35,3.35,0,0,0,2.71,1.16,3.41,3.41,0,0,0,2.18-.67,3,3,0,0,0,1.06-1.95h1.21a4.16,4.16,0,0,1-1.45,2.75A4.81,4.81,0,0,1,569.83,324.13Z"/><path class="cls-7" d="M578.89,324l-3.64-10.72h1.29l3.19,9.46,3.2-9.46h1.23L580.46,324Z"/><path class="cls-7" d="M588.71,324l-3.65-10.72h1.29l3.19,9.46,3.2-9.46H594L590.26,324Z"/></g><g class="cls-6"><path class="cls-8" d="M596.5,317.87l-.85-.62,1.24-1.66-1.84-.44.33-1,1.77.73-.11-2h1.1l-.1,2,1.75-.73.33,1-1.86.44,1.24,1.66-.83.62-1.12-1.8Z"/></g></g><rect class="cls-3" x="246" y="273" width="306" height="204" rx="8"/><g class="cls-6"><g class="cls-6"><path class="cls-4" d="M295,387v-4.68l-3.58-6h1.47l2.8,5,2.7-5h1.31l-3.4,6.06V387Z"/><path class="cls-4" d="M303.52,387.13a3.64,3.64,0,0,1-2.76-1.13,4,4,0,0,1-1.09-2.86V383a4,4,0,0,1,1.09-2.89,4,4,0,0,1,5.54,0,4,4,0,0,1,1.08,2.87v.12a4,4,0,0,1-1.09,2.89A3.74,3.74,0,0,1,303.52,387.13Zm0-1a2.35,2.35,0,0,0,1.87-.81,3.2,3.2,0,0,0,.7-2.15V383a3.23,3.23,0,0,0-.7-2.17,2.55,2.55,0,0,0-3.75,0A3.22,3.22,0,0,0,301,383v.11a3.2,3.2,0,0,0,.69,2.16A2.37,2.37,0,0,0,303.53,386.1Z"/><path class="cls-4" d="M312,387.13a2.7,2.7,0,0,1-2-.73,3.07,3.07,0,0,1-.74-2.28v-5h1.24v4.9a2.22,2.22,0,0,0,.44,1.52,1.8,1.8,0,0,0,1.38.47,2.2,2.2,0,0,0,1.52-.56,2,2,0,0,0,.63-1.58v-4.75h1.25V387h-1.25v-1.24a2.32,2.32,0,0,1-.93,1A3,3,0,0,1,312,387.13Z"/><path class="cls-4" d="M322.2,387V375.41h1.25v5a2.25,2.25,0,0,1,.95-1A3,3,0,0,1,326,379a2.67,2.67,0,0,1,2,.77,3.34,3.34,0,0,1,.74,2.39V387h-1.25v-4.91a2.16,2.16,0,0,0-.45-1.51,1.82,1.82,0,0,0-1.39-.48,2.23,2.23,0,0,0-1.55.57,2,2,0,0,0-.64,1.58V387Z"/><path class="cls-4" d="M333.14,387.13a3,3,0,0,1-1.88-.57,2.08,2.08,0,0,1-.73-1.73,2,2,0,0,1,1.12-1.85,6,6,0,0,1,2.81-.59h1.12v-.56a1.94,1.94,0,0,0-.39-1.36,1.7,1.7,0,0,0-1.29-.42c-1.08,0-1.68.48-1.8,1.41h-1.24a2.4,2.4,0,0,1,1-1.85A3.69,3.69,0,0,1,334,379c1.91,0,2.87.94,2.87,2.81V387h-1.25v-1A3,3,0,0,1,333.14,387.13Zm.12-1a2.61,2.61,0,0,0,1.67-.5,1.63,1.63,0,0,0,.65-1.38v-1H334.5c-1.82,0-2.73.52-2.73,1.55S332.27,386.14,333.26,386.14Z"/><path class="cls-4" d="M341,387l-2.85-7.84h1.35l2.33,6.58,2.29-6.58h1.29L342.6,387Z"/><path class="cls-4" d="M350,387.13a3.64,3.64,0,0,1-2.73-1.08,4,4,0,0,1-1.06-2.89V383a4.12,4.12,0,0,1,1-2.9,3.4,3.4,0,0,1,2.64-1.12,3.5,3.5,0,0,1,2.52,1,3.88,3.88,0,0,1,1,2.93v.41h-5.91a3.21,3.21,0,0,0,.68,2.06,2.37,2.37,0,0,0,1.84.71c1.23,0,1.92-.45,2.08-1.36h1.25a2.57,2.57,0,0,1-1.1,1.77A3.83,3.83,0,0,1,350,387.13Zm-2.46-4.81h4.59c-.11-1.51-.86-2.27-2.25-2.27a2.15,2.15,0,0,0-1.56.61A2.91,2.91,0,0,0,347.58,382.32Z"/><path class="cls-4" d="M361.76,387.13a3.32,3.32,0,0,1-2.21-.67,2.49,2.49,0,0,1-.87-1.87h1.22c.1,1,.71,1.51,1.84,1.51s1.71-.41,1.71-1.24A1,1,0,0,0,363,384a4.3,4.3,0,0,0-1.41-.45,5,5,0,0,1-2.13-.79,1.88,1.88,0,0,1-.6-1.53,1.92,1.92,0,0,1,.82-1.61,3.1,3.1,0,0,1,1.84-.59c1.7,0,2.64.76,2.83,2.27h-1.2a1.49,1.49,0,0,0-.52-.94,1.83,1.83,0,0,0-1.13-.3,1.77,1.77,0,0,0-1.08.31,1,1,0,0,0-.4.82.89.89,0,0,0,.38.79,3.9,3.9,0,0,0,1.45.45,10.05,10.05,0,0,1,1.13.27,3.16,3.16,0,0,1,.84.38,1.44,1.44,0,0,1,.6.67,2.33,2.33,0,0,1,.19,1,2.2,2.2,0,0,1-.74,1.74A3.18,3.18,0,0,1,361.76,387.13Z"/><path class="cls-4" d="M369.18,387.13a2.67,2.67,0,0,1-2-.73,3.07,3.07,0,0,1-.75-2.28v-5h1.25v4.9a2.22,2.22,0,0,0,.44,1.52,1.78,1.78,0,0,0,1.37.47,2.23,2.23,0,0,0,1.53-.56,2,2,0,0,0,.63-1.58v-4.75h1.25V387h-1.25v-1.24a2.32,2.32,0,0,1-.93,1A3,3,0,0,1,369.18,387.13Z"/><path class="cls-4" d="M378.69,387.13a3.75,3.75,0,0,1-2.75-1.08,3.94,3.94,0,0,1-1.09-2.89V383a4,4,0,0,1,1.11-2.9,3.61,3.61,0,0,1,2.7-1.12,3.86,3.86,0,0,1,2.3.67,2.79,2.79,0,0,1,1.11,2.07h-1.23a1.93,1.93,0,0,0-2.18-1.71,2.29,2.29,0,0,0-1.8.82,3.18,3.18,0,0,0-.72,2.17v.12a3.15,3.15,0,0,0,.7,2.18,2.45,2.45,0,0,0,1.87.76,2.4,2.4,0,0,0,1.52-.5,2,2,0,0,0,.73-1.42h1.15A3.06,3.06,0,0,1,381,386.3,3.41,3.41,0,0,1,378.69,387.13Z"/><path class="cls-4" d="M387.24,387.13a3.75,3.75,0,0,1-2.75-1.08,3.94,3.94,0,0,1-1.09-2.89V383a4,4,0,0,1,1.11-2.9,3.61,3.61,0,0,1,2.7-1.12,3.86,3.86,0,0,1,2.3.67,2.79,2.79,0,0,1,1.11,2.07h-1.23a1.93,1.93,0,0,0-2.18-1.71,2.29,2.29,0,0,0-1.8.82,3.18,3.18,0,0,0-.72,2.17v.12a3.15,3.15,0,0,0,.7,2.18,2.45,2.45,0,0,0,1.87.76,2.4,2.4,0,0,0,1.52-.5,2,2,0,0,0,.73-1.42h1.15a3.06,3.06,0,0,1-1.07,2.12A3.41,3.41,0,0,1,387.24,387.13Z"/><path class="cls-4" d="M395.75,387.13a3.68,3.68,0,0,1-2.74-1.08,4,4,0,0,1-1.06-2.89V383a4.16,4.16,0,0,1,1-2.9,3.71,3.71,0,0,1,5.16-.15,3.85,3.85,0,0,1,1,2.93v.41h-5.91a3.16,3.16,0,0,0,.69,2.06,2.33,2.33,0,0,0,1.83.71c1.23,0,1.93-.45,2.09-1.36h1.24a2.55,2.55,0,0,1-1.09,1.77A3.83,3.83,0,0,1,395.75,387.13Zm-2.46-4.81h4.59c-.11-1.51-.86-2.27-2.25-2.27a2.15,2.15,0,0,0-1.56.61A2.91,2.91,0,0,0,393.29,382.32Z"/><path class="cls-4" d="M403.56,387.13a3.33,3.33,0,0,1-2.21-.67,2.51,2.51,0,0,1-.86-1.87h1.21c.1,1,.72,1.51,1.85,1.51s1.71-.41,1.71-1.24a1,1,0,0,0-.43-.87,4.14,4.14,0,0,0-1.4-.45,5,5,0,0,1-2.13-.79,2.1,2.1,0,0,1,.22-3.14,3.05,3.05,0,0,1,1.83-.59c1.7,0,2.65.76,2.84,2.27H405a1.5,1.5,0,0,0-.53-.94,1.8,1.8,0,0,0-1.12-.3,1.77,1.77,0,0,0-1.08.31,1,1,0,0,0-.41.82.87.87,0,0,0,.39.79,3.77,3.77,0,0,0,1.44.45,10.9,10.9,0,0,1,1.14.27,3.47,3.47,0,0,1,.84.38,1.55,1.55,0,0,1,.6.67,2.5,2.5,0,0,1,.18,1,2.17,2.17,0,0,1-.74,1.74A3.16,3.16,0,0,1,403.56,387.13Z"/><path class="cls-4" d="M410.76,387.13a3.33,3.33,0,0,1-2.21-.67,2.51,2.51,0,0,1-.86-1.87h1.21c.1,1,.72,1.51,1.85,1.51s1.71-.41,1.71-1.24A1,1,0,0,0,412,384a4.14,4.14,0,0,0-1.4-.45,5,5,0,0,1-2.13-.79,2.1,2.1,0,0,1,.22-3.14,3.05,3.05,0,0,1,1.83-.59c1.7,0,2.65.76,2.84,2.27h-1.2a1.5,1.5,0,0,0-.53-.94,1.8,1.8,0,0,0-1.12-.3,1.77,1.77,0,0,0-1.08.31,1,1,0,0,0-.41.82.87.87,0,0,0,.39.79,3.77,3.77,0,0,0,1.44.45,10.9,10.9,0,0,1,1.14.27,3.47,3.47,0,0,1,.84.38,1.55,1.55,0,0,1,.6.67,2.5,2.5,0,0,1,.18,1,2.17,2.17,0,0,1-.74,1.74A3.16,3.16,0,0,1,410.76,387.13Z"/><path class="cls-4" d="M415.8,387v-6.79h-1.12v-1h1.12v-1.28a2.68,2.68,0,0,1,.6-1.87,2.23,2.23,0,0,1,1.74-.65,2.92,2.92,0,0,1,.93.15v1.05a2.38,2.38,0,0,0-.88-.17c-.76,0-1.14.45-1.14,1.36v1.41H419v1h-1.92V387Z"/><path class="cls-4" d="M423.38,387.13a2.71,2.71,0,0,1-2-.73,3.11,3.11,0,0,1-.74-2.28v-5h1.24v4.9a2.17,2.17,0,0,0,.45,1.52,1.77,1.77,0,0,0,1.37.47,2.18,2.18,0,0,0,1.52-.56,2,2,0,0,0,.64-1.58v-4.75h1.24V387h-1.24v-1.24a2.29,2.29,0,0,1-.94,1A3,3,0,0,1,423.38,387.13Z"/><path class="cls-4" d="M429.66,387V375.41h1.26V387Z"/><path class="cls-4" d="M433.5,387V375.41h1.26V387Z"/><path class="cls-4" d="M438,389.73l1.48-3.54-3.07-7h1.33l2.4,5.62,2.18-5.62h1.27l-4.33,10.57Z"/><path class="cls-4" d="M452.48,387.13a3.73,3.73,0,0,1-2.75-1.08,3.9,3.9,0,0,1-1.09-2.89V383a4,4,0,0,1,1.1-2.9,3.65,3.65,0,0,1,2.71-1.12,3.83,3.83,0,0,1,2.29.67,2.79,2.79,0,0,1,1.11,2.07h-1.23a1.92,1.92,0,0,0-2.17-1.71,2.32,2.32,0,0,0-1.81.82,3.22,3.22,0,0,0-.71,2.17v.12a3.11,3.11,0,0,0,.7,2.18,2.41,2.41,0,0,0,1.86.76,2.44,2.44,0,0,0,1.53-.5,2,2,0,0,0,.72-1.42h1.16a3.1,3.1,0,0,1-1.07,2.12A3.43,3.43,0,0,1,452.48,387.13Z"/><path class="cls-4" d="M457.77,387V375.41H459v5a2.29,2.29,0,0,1,.94-1,3.06,3.06,0,0,1,1.58-.39,2.67,2.67,0,0,1,2,.77,3.34,3.34,0,0,1,.74,2.39V387h-1.25v-4.91a2.16,2.16,0,0,0-.45-1.51,1.82,1.82,0,0,0-1.39-.48,2.23,2.23,0,0,0-1.55.57,2,2,0,0,0-.64,1.58V387Z"/><path class="cls-4" d="M470,387.13a3.68,3.68,0,0,1-2.74-1.08,4,4,0,0,1-1-2.89V383a4.12,4.12,0,0,1,1-2.9,3.4,3.4,0,0,1,2.64-1.12,3.46,3.46,0,0,1,2.51,1,3.85,3.85,0,0,1,1,2.93v.41h-5.91a3.21,3.21,0,0,0,.68,2.06,2.35,2.35,0,0,0,1.84.71c1.23,0,1.92-.45,2.08-1.36h1.25a2.57,2.57,0,0,1-1.1,1.77A3.83,3.83,0,0,1,470,387.13Zm-2.46-4.81h4.59c-.11-1.51-.86-2.27-2.25-2.27a2.15,2.15,0,0,0-1.56.61A2.91,2.91,0,0,0,467.49,382.32Z"/><path class="cls-4" d="M478.52,387.13a3.73,3.73,0,0,1-2.75-1.08,3.9,3.9,0,0,1-1.09-2.89V383a4,4,0,0,1,1.1-2.9,3.65,3.65,0,0,1,2.71-1.12,3.83,3.83,0,0,1,2.29.67,2.79,2.79,0,0,1,1.11,2.07h-1.23a1.92,1.92,0,0,0-2.17-1.71,2.32,2.32,0,0,0-1.81.82A3.22,3.22,0,0,0,476,383v.12a3.11,3.11,0,0,0,.7,2.18,2.41,2.41,0,0,0,1.86.76,2.44,2.44,0,0,0,1.53-.5,2,2,0,0,0,.72-1.42h1.16a3.1,3.1,0,0,1-1.07,2.12A3.43,3.43,0,0,1,478.52,387.13Z"/><path class="cls-4" d="M483.81,387V375.41h1.25v7.36l3.25-3.61h1.46l-3.36,3.64,3.64,4.2h-1.51l-3.48-4.07V387Z"/><path class="cls-4" d="M494.46,387.13a3.68,3.68,0,0,1-2.74-1.08,4,4,0,0,1-1.05-2.89V383a4.12,4.12,0,0,1,1-2.9,3.4,3.4,0,0,1,2.64-1.12,3.46,3.46,0,0,1,2.51,1,3.85,3.85,0,0,1,1,2.93v.41H492a3.16,3.16,0,0,0,.68,2.06,2.35,2.35,0,0,0,1.84.71c1.23,0,1.92-.45,2.08-1.36h1.25a2.57,2.57,0,0,1-1.1,1.77A3.83,3.83,0,0,1,494.46,387.13ZM492,382.32h4.59c-.11-1.51-.86-2.27-2.25-2.27a2.15,2.15,0,0,0-1.56.61A2.91,2.91,0,0,0,492,382.32Z"/><path class="cls-4" d="M502.73,387.13a3.35,3.35,0,0,1-2.56-1,4,4,0,0,1-1-2.85v-.12a4.27,4.27,0,0,1,1-2.95,3.35,3.35,0,0,1,2.64-1.15,2.77,2.77,0,0,1,2.56,1.4v-5h1.25V387h-1.25v-1.35a3,3,0,0,1-1.11,1A3,3,0,0,1,502.73,387.13Zm.13-1a2.46,2.46,0,0,0,1.88-.76,3.08,3.08,0,0,0,.72-2.21V383a3.22,3.22,0,0,0-.66-2.21,2.56,2.56,0,0,0-3.66,0,3.37,3.37,0,0,0-.66,2.21v.12a3.19,3.19,0,0,0,.66,2.18A2.21,2.21,0,0,0,502.86,386.1Z"/></g><g class="cls-6"><path class="cls-4" d="M357.81,408.13a3.62,3.62,0,0,1-2.75-1.13,3.92,3.92,0,0,1-1.09-2.86V404a4,4,0,0,1,1.09-2.89,4,4,0,0,1,5.53,0,3.91,3.91,0,0,1,1.09,2.87v.12a4,4,0,0,1-1.1,2.89A3.72,3.72,0,0,1,357.81,408.13Zm0-1a2.34,2.34,0,0,0,1.87-.81,3.14,3.14,0,0,0,.7-2.15V404a3.18,3.18,0,0,0-.7-2.17,2.54,2.54,0,0,0-3.74,0,3.22,3.22,0,0,0-.69,2.16v.11a3.2,3.2,0,0,0,.69,2.16A2.35,2.35,0,0,0,357.82,407.1Z"/><path class="cls-4" d="M366.27,408.13a2.71,2.71,0,0,1-2-.73,3.11,3.11,0,0,1-.74-2.28v-5h1.24v4.9a2.17,2.17,0,0,0,.45,1.52,1.77,1.77,0,0,0,1.37.47,2.18,2.18,0,0,0,1.52-.56,2,2,0,0,0,.64-1.58v-4.75H370V408h-1.24v-1.24a2.29,2.29,0,0,1-.94,1A3,3,0,0,1,366.27,408.13Z"/><path class="cls-4" d="M374.91,408.11a2.11,2.11,0,0,1-1.58-.56,2.08,2.08,0,0,1-.54-1.51v-4.83h-1.12v-1h1.12v-1.79H374v1.79h1.83v1H374v4.71c0,.75.32,1.13,1,1.13a2.61,2.61,0,0,0,1-.16v1.05A3.14,3.14,0,0,1,374.91,408.11Z"/><path class="cls-4" d="M383.4,408,381,400.16h1.35l1.83,6.31,1.91-6.31h1.08l1.78,6.31,1.85-6.31h1.27L389.61,408h-1.38l-1.64-5.88L384.76,408Z"/><path class="cls-4" d="M394.94,398.28a.8.8,0,0,1-.58.24.84.84,0,0,1-.82-.82.76.76,0,0,1,.25-.59.78.78,0,0,1,.57-.24.8.8,0,0,1,.58.24.76.76,0,0,1,.25.59A.77.77,0,0,1,394.94,398.28ZM393.76,408v-7.84H395V408Z"/><path class="cls-4" d="M399.94,408.11a1.91,1.91,0,0,1-2.11-2.07v-4.83H396.7v-1h1.13v-1.79h1.24v1.79h1.83v1h-1.83v4.71c0,.75.33,1.13,1,1.13a2.61,2.61,0,0,0,1-.16v1.05A3.2,3.2,0,0,1,399.94,408.11Z"/><path class="cls-4" d="M402.88,408V396.41h1.25v5a2.29,2.29,0,0,1,.94-1,3.06,3.06,0,0,1,1.58-.39,2.67,2.67,0,0,1,2,.77,3.34,3.34,0,0,1,.74,2.39V408h-1.25v-4.91a2.16,2.16,0,0,0-.45-1.51,1.82,1.82,0,0,0-1.39-.48,2.27,2.27,0,0,0-1.56.57,2,2,0,0,0-.63,1.58V408Z"/><path class="cls-4" d="M415.92,408V397.28h3a4.42,4.42,0,0,1,2.71.77,2.72,2.72,0,0,1,1,2.36v.06a2.76,2.76,0,0,1-1,2.39,4.42,4.42,0,0,1-2.71.77h-1.74V408Zm1.3-5.4h1.83a2.5,2.5,0,0,0,1.75-.55,2,2,0,0,0,.61-1.58v-.06c0-1.39-.79-2.08-2.36-2.08h-1.83Z"/><path class="cls-4" d="M426.43,408.13a3,3,0,0,1-1.88-.57,2.08,2.08,0,0,1-.73-1.73,2,2,0,0,1,1.12-1.85,6,6,0,0,1,2.81-.59h1.13v-.56a1.94,1.94,0,0,0-.39-1.36,1.7,1.7,0,0,0-1.29-.42c-1.08,0-1.68.48-1.8,1.41h-1.25a2.4,2.4,0,0,1,1-1.85,3.72,3.72,0,0,1,2.12-.59c1.91,0,2.86.94,2.86,2.81V408h-1.24v-1A3,3,0,0,1,426.43,408.13Zm.12-1a2.61,2.61,0,0,0,1.67-.5,1.64,1.64,0,0,0,.66-1.38v-1H427.8c-1.82,0-2.73.52-2.73,1.55S425.56,407.14,426.55,407.14Z"/><path class="cls-4" d="M435,408.13a3.32,3.32,0,0,1-2.21-.67,2.49,2.49,0,0,1-.87-1.87h1.22c.1,1,.71,1.51,1.84,1.51s1.71-.41,1.71-1.24a1,1,0,0,0-.43-.87,4.14,4.14,0,0,0-1.4-.45,5,5,0,0,1-2.13-.79,2.1,2.1,0,0,1,.22-3.14,3.1,3.1,0,0,1,1.84-.59c1.7,0,2.64.76,2.83,2.27h-1.2a1.49,1.49,0,0,0-.52-.94,1.83,1.83,0,0,0-1.13-.3,1.77,1.77,0,0,0-1.08.31,1,1,0,0,0-.4.82.89.89,0,0,0,.38.79,3.84,3.84,0,0,0,1.45.45,10.63,10.63,0,0,1,1.13.27,3.3,3.3,0,0,1,.84.38,1.49,1.49,0,0,1,.6.67,2.49,2.49,0,0,1,.19,1,2.18,2.18,0,0,1-.75,1.74A3.13,3.13,0,0,1,435,408.13Z"/><path class="cls-4" d="M442.2,408.13a3.36,3.36,0,0,1-2.22-.67,2.51,2.51,0,0,1-.86-1.87h1.22c.1,1,.71,1.51,1.84,1.51s1.71-.41,1.71-1.24a1,1,0,0,0-.43-.87,4.14,4.14,0,0,0-1.4-.45,5,5,0,0,1-2.13-.79,2.1,2.1,0,0,1,.22-3.14A3.08,3.08,0,0,1,442,400c1.7,0,2.64.76,2.83,2.27h-1.2a1.49,1.49,0,0,0-.52-.94,1.83,1.83,0,0,0-1.13-.3,1.77,1.77,0,0,0-1.08.31,1,1,0,0,0-.4.82.87.87,0,0,0,.38.79,3.84,3.84,0,0,0,1.45.45,10.05,10.05,0,0,1,1.13.27,3.47,3.47,0,0,1,.84.38,1.55,1.55,0,0,1,.6.67,2.49,2.49,0,0,1,.19,1,2.18,2.18,0,0,1-.75,1.74A3.13,3.13,0,0,1,442.2,408.13Z"/></g></g><g class="cls-9"><path class="cls-10" d="M351.66,350.13l10.64-10.64v10.64Z"/></g><path class="cls-10" d="M354.32,360.77,372.05,343v17.73Z"/><path class="cls-10" d="M349,343l7.09-7.09V343Z"/><g class="cls-6"><g class="cls-6"><path class="cls-4" d="M390.15,336.2a7.69,7.69,0,0,1,5.63,2.24,8,8,0,0,1,0,11.14,7.63,7.63,0,0,1-5.63,2.26h-4.86V360h-3.91V336.2Zm0,12A3.79,3.79,0,0,0,393,347a4.51,4.51,0,0,0,0-5.95,3.76,3.76,0,0,0-2.86-1.18h-4.86v8.3Z"/><path class="cls-4" d="M413.48,343h3.67v17h-3.67v-2.45a6.88,6.88,0,0,1-6,2.89,8,8,0,0,1-6-2.6,9.37,9.37,0,0,1,0-12.7,8,8,0,0,1,6-2.58,6.93,6.93,0,0,1,6,2.85Zm-9.22,12.39a5.54,5.54,0,0,0,7.69,0,5.71,5.71,0,0,0,0-7.78,5.54,5.54,0,0,0-7.69,0,5.71,5.71,0,0,0,0,7.78Z"/><path class="cls-4" d="M424.63,347.67a1.48,1.48,0,0,0,.94,1.33,14.2,14.2,0,0,0,2.26.89l2.7.83a4.7,4.7,0,0,1,2.32,1.58,4.94,4.94,0,0,1-1,6.75,7.77,7.77,0,0,1-4.75,1.39,8.42,8.42,0,0,1-4.31-1.05,6.11,6.11,0,0,1-2.62-2.93l3.16-1.83a3.61,3.61,0,0,0,3.77,2.45c1.93,0,2.9-.64,2.9-1.91a1.52,1.52,0,0,0-.94-1.32,12.34,12.34,0,0,0-2.25-.92l-2.71-.83a5,5,0,0,1-2.32-1.53,4.23,4.23,0,0,1-.93-2.81,4.59,4.59,0,0,1,1.78-3.77,6.84,6.84,0,0,1,4.44-1.43,7.52,7.52,0,0,1,3.76.93,6.4,6.4,0,0,1,2.53,2.6l-3.09,1.74a3.22,3.22,0,0,0-3.2-1.94,3.28,3.28,0,0,0-1.77.45A1.5,1.5,0,0,0,424.63,347.67Z"/><path class="cls-4" d="M439.28,347.67a1.5,1.5,0,0,0,.94,1.33,14.34,14.34,0,0,0,2.27.89l2.7.83a4.72,4.72,0,0,1,2.31,1.58,4.91,4.91,0,0,1-1,6.75,7.76,7.76,0,0,1-4.74,1.39,8.43,8.43,0,0,1-4.32-1.05,6.21,6.21,0,0,1-2.62-2.93l3.16-1.83a3.62,3.62,0,0,0,3.78,2.45c1.92,0,2.89-.64,2.89-1.91a1.5,1.5,0,0,0-.94-1.32,12,12,0,0,0-2.25-.92l-2.7-.83a4.89,4.89,0,0,1-2.32-1.53,4.19,4.19,0,0,1-.94-2.81,4.59,4.59,0,0,1,1.79-3.77,6.83,6.83,0,0,1,4.43-1.43,7.52,7.52,0,0,1,3.76.93,6.4,6.4,0,0,1,2.53,2.6L445,347.83a3.63,3.63,0,0,0-5-1.49A1.49,1.49,0,0,0,439.28,347.67Z"/></g></g></g></g></svg>